<svg width="862" height="925" viewBox="0 0 862 925" fill="none" xmlns="http://www.w3.org/2000/svg">
<path fill-rule="evenodd" clip-rule="evenodd" d="M295.788 251.414L370.556 159.791L433.828 82.8339C450.007 63.6118 458.587 52.72 459.57 50.1584C463.174 40.7659 461.146 34.5804 453.486 31.602C443.273 27.6308 432.992 31.4833 422.643 43.1595C414.652 53.7898 390.645 89.5927 350.621 150.568L286.852 247.939C274.349 237.19 258.213 220.613 238.446 198.208C219.857 175.28 203.002 155.479 187.882 138.806C173.089 121.279 163.565 111.688 159.31 110.034C152.501 107.386 145.724 107.204 138.979 109.488C133.086 112.103 129.484 115.118 128.173 118.533C126.207 123.656 126.271 128.588 128.365 133.327C130.787 137.212 136.023 142.683 144.075 149.738C153.305 156.271 163.223 163.562 173.828 171.61C184.761 178.805 199.555 189.955 218.212 205.059C237.719 220.494 257.325 236.949 277.028 254.423C239.177 274.049 204.503 290.494 173.005 303.76L72.7146 347.189C47.3061 359.878 33.4551 369.212 31.1617 375.189C26.5749 387.143 27.2604 394.278 33.2181 396.595C37.4736 398.249 41.3695 398.292 44.9056 396.723C50.8634 399.04 75.257 386.447 118.087 358.944L155.906 336.852C176.404 324.216 197.327 311.745 218.676 299.44C241.203 286.612 262.552 274.306 282.723 262.524C280.881 290.265 276.09 332.067 268.347 387.932C261.524 436.304 258.144 462.956 258.208 467.887C258.86 478.934 263.016 485.947 270.676 488.925C275.782 490.911 280.857 490.431 285.899 487.486C292.121 484.017 296.214 479.721 298.18 474.598C299.359 474.075 299.296 462.766 297.993 440.672C296.69 418.578 295.127 389.514 293.304 353.479C292.383 319.664 292.431 290.186 293.446 265.045C575.52 456.247 740.246 633.23 851.462 856.87L858.618 853.319C747.269 629.41 582.7 452.222 302.824 261.754L404.016 271.418C459.473 277.281 495.157 279.872 511.068 279.19C526.979 278.507 536.409 274.324 539.357 266.639C542.961 257.247 539.656 250.565 529.443 246.594C521.783 243.615 472.512 244.573 381.629 249.466C342.015 250.744 313.402 251.394 295.788 251.414Z" fill="#222222"/>
<path d="M370.556 159.791L369.011 158.521L369.006 158.527L370.556 159.791ZM295.788 251.414L294.239 250.149L291.571 253.419L295.791 253.414L295.788 251.414ZM433.828 82.8339L432.298 81.546L432.291 81.5548L432.284 81.5637L433.828 82.8339ZM459.57 50.1584L461.437 50.8748L461.437 50.8748L459.57 50.1584ZM453.486 31.602L452.761 33.4661L452.761 33.4661L453.486 31.602ZM422.643 43.1595L421.147 41.8329L421.093 41.8932L421.045 41.9577L422.643 43.1595ZM350.621 150.568L348.949 149.471L348.948 149.472L350.621 150.568ZM286.852 247.939L285.548 249.456L287.276 250.941L288.525 249.035L286.852 247.939ZM238.446 198.208L236.892 199.467L236.919 199.5L236.946 199.531L238.446 198.208ZM187.882 138.806L186.354 140.096L186.377 140.123L186.401 140.15L187.882 138.806ZM159.31 110.034L160.035 108.17L160.035 108.17L159.31 110.034ZM138.979 109.488L138.338 107.594L138.252 107.623L138.168 107.66L138.979 109.488ZM128.173 118.533L130.04 119.25L130.04 119.25L128.173 118.533ZM128.365 133.327L126.536 134.135L126.593 134.264L126.668 134.385L128.365 133.327ZM144.075 149.738L142.757 151.243L142.835 151.311L142.92 151.371L144.075 149.738ZM173.828 171.61L172.619 173.204L172.672 173.244L172.729 173.281L173.828 171.61ZM218.212 205.059L216.953 206.613L216.962 206.62L216.971 206.627L218.212 205.059ZM277.028 254.423L277.949 256.198L280.534 254.858L278.355 252.926L277.028 254.423ZM173.005 303.76L172.228 301.916L172.219 301.92L172.21 301.924L173.005 303.76ZM72.7146 347.189L71.9199 345.354L71.8698 345.376L71.8211 345.4L72.7146 347.189ZM31.1617 375.189L29.2944 374.472L29.2944 374.472L31.1617 375.189ZM33.2181 396.595L32.4933 398.459L32.4933 398.459L33.2181 396.595ZM44.9056 396.723L45.6304 394.859L44.8551 394.558L44.0946 394.895L44.9056 396.723ZM118.087 358.944L117.078 357.217L117.041 357.238L117.006 357.261L118.087 358.944ZM155.906 336.852L156.914 338.579L156.935 338.567L156.955 338.554L155.906 336.852ZM218.676 299.44L217.686 297.702L217.677 297.707L218.676 299.44ZM282.723 262.524L284.718 262.657L284.968 258.896L281.714 260.797L282.723 262.524ZM268.347 387.932L270.328 388.211L270.328 388.207L268.347 387.932ZM258.208 467.887L256.209 467.913L256.209 467.959L256.212 468.005L258.208 467.887ZM270.676 488.925L271.4 487.061L271.4 487.061L270.676 488.925ZM285.899 487.486L284.926 485.739L284.908 485.748L284.891 485.759L285.899 487.486ZM298.18 474.598L297.369 472.77L296.61 473.106L296.313 473.882L298.18 474.598ZM297.993 440.672L299.99 440.554L299.99 440.554L297.993 440.672ZM293.304 353.479L291.305 353.534L291.305 353.557L291.306 353.581L293.304 353.479ZM293.446 265.045L294.568 263.39L291.592 261.373L291.447 264.965L293.446 265.045ZM851.462 856.87L849.671 857.761L850.561 859.55L852.351 858.662L851.462 856.87ZM858.618 853.319L859.507 855.11L861.3 854.221L860.409 852.428L858.618 853.319ZM302.824 261.754L303.014 259.763L301.699 263.408L302.824 261.754ZM404.016 271.418L404.226 269.429L404.216 269.428L404.206 269.427L404.016 271.418ZM511.068 279.19L510.982 277.191L510.982 277.191L511.068 279.19ZM539.357 266.639L541.224 267.356L541.224 267.356L539.357 266.639ZM529.443 246.594L530.168 244.73L529.443 246.594ZM381.629 249.466L381.693 251.465L381.715 251.464L381.736 251.463L381.629 249.466ZM369.006 158.527L294.239 250.149L297.338 252.678L372.106 161.056L369.006 158.527ZM432.284 81.5637L369.011 158.521L372.101 161.062L435.373 84.104L432.284 81.5637ZM457.703 49.4419C457.563 49.8065 457 50.7647 455.778 52.4827C454.61 54.1257 452.963 56.2989 450.827 59.0108C446.556 64.4314 440.383 71.9406 432.298 81.546L435.359 84.1217C443.452 74.5051 449.658 66.9574 453.969 61.4861C456.122 58.7521 457.816 56.5206 459.039 54.8003C460.208 53.1549 461.086 51.791 461.437 50.8748L457.703 49.4419ZM452.761 33.4661C456.193 34.8003 458.071 36.7186 458.852 39.098C459.662 41.5712 459.425 44.9529 457.703 49.4419L461.437 50.8748C463.319 45.9714 463.87 41.564 462.653 37.8518C461.405 34.0458 458.439 31.3821 454.211 29.738L452.761 33.4661ZM424.14 44.486C429.183 38.7957 434.084 35.1595 438.817 33.3858C443.498 31.6317 448.114 31.659 452.761 33.4661L454.211 29.738C448.645 27.5738 443.014 27.5417 437.414 29.6401C431.866 31.7189 426.452 35.8471 421.147 41.8329L424.14 44.486ZM352.293 151.666C392.337 90.6596 416.299 54.9269 424.242 44.3612L421.045 41.9577C413.005 52.6528 388.953 88.5259 348.949 149.471L352.293 151.666ZM288.525 249.035L352.294 151.664L348.948 149.472L285.179 246.843L288.525 249.035ZM236.946 199.531C256.734 221.959 272.941 238.617 285.548 249.456L288.156 246.422C275.757 235.763 259.693 219.266 239.946 196.885L236.946 199.531ZM186.401 140.15C201.49 156.789 218.32 176.56 236.892 199.467L239.999 196.948C221.394 174 204.515 154.17 189.364 137.463L186.401 140.15ZM158.585 111.898C159.346 112.194 160.541 112.938 162.225 114.312C163.873 115.658 165.871 117.506 168.225 119.877C172.932 124.617 178.972 131.35 186.354 140.096L189.41 137.516C182 128.736 175.881 121.909 171.064 117.059C168.656 114.634 166.55 112.679 164.754 111.213C162.992 109.776 161.401 108.701 160.035 108.17L158.585 111.898ZM139.621 111.382C145.908 109.254 152.201 109.416 158.585 111.898L160.035 108.17C152.8 105.357 145.54 105.155 138.338 107.594L139.621 111.382ZM130.04 119.25C131.059 116.595 134.041 113.867 139.79 111.316L138.168 107.66C132.131 110.338 127.908 113.64 126.306 117.817L130.04 119.25ZM130.195 132.518C128.328 128.293 128.252 123.912 130.04 119.25L126.306 117.817C124.163 123.401 124.215 128.882 126.536 134.135L130.195 132.518ZM145.393 148.234C137.345 141.182 132.313 135.879 130.063 132.269L126.668 134.385C129.261 138.545 134.702 144.184 142.757 151.243L145.393 148.234ZM175.037 170.017C164.417 161.958 154.482 154.654 145.23 148.106L142.92 151.371C152.129 157.889 162.029 165.166 172.619 173.204L175.037 170.017ZM219.47 203.504C200.797 188.387 185.942 177.189 174.927 169.94L172.729 173.281C183.579 180.422 198.313 191.522 216.953 206.613L219.47 203.504ZM278.355 252.926C258.625 235.429 238.991 218.95 219.453 203.49L216.971 206.627C236.447 222.038 256.024 238.468 275.701 255.919L278.355 252.926ZM173.781 305.603C205.338 292.313 240.062 275.843 277.949 256.198L276.108 252.647C238.293 272.254 203.667 288.676 172.228 301.916L173.781 305.603ZM73.5094 349.025L173.799 305.595L172.21 301.924L71.9199 345.354L73.5094 349.025ZM33.029 375.905C33.4438 374.824 34.4862 373.366 36.425 371.528C38.3336 369.718 40.9759 367.663 44.3876 365.365C51.2088 360.768 60.9358 355.307 73.6082 348.979L71.8211 345.4C59.0849 351.761 49.1821 357.311 42.1524 362.047C38.6385 364.415 35.8 366.608 33.6726 368.625C31.5752 370.614 30.0263 372.565 29.2944 374.472L33.029 375.905ZM33.9429 394.731C32.7803 394.279 31.9544 393.628 31.3746 392.804C30.7861 391.966 30.3727 390.836 30.2265 389.314C29.9283 386.21 30.7723 381.787 33.029 375.905L29.2944 374.472C26.9643 380.545 25.8576 385.666 26.2449 389.697C26.4415 391.744 27.0298 393.578 28.1021 395.104C29.1832 396.642 30.677 397.752 32.4933 398.459L33.9429 394.731ZM44.0946 394.895C41.1322 396.21 37.7985 396.23 33.9429 394.731L32.4933 398.459C37.1488 400.269 41.6068 400.375 45.7167 398.552L44.0946 394.895ZM117.006 357.261C95.6076 371.002 78.8642 380.986 66.7517 387.239C60.6891 390.369 55.8449 392.533 52.1893 393.771C50.3602 394.39 48.8854 394.758 47.7393 394.911C46.5557 395.069 45.9163 394.971 45.6304 394.859L44.1808 398.588C45.3844 399.055 46.8106 399.07 48.2687 398.876C49.7643 398.676 51.5072 398.225 53.4721 397.56C57.4043 396.228 62.4524 393.96 68.5866 390.793C80.8678 384.453 97.736 374.389 119.167 360.627L117.006 357.261ZM154.897 335.125L117.078 357.217L119.095 360.671L156.914 338.579L154.897 335.125ZM217.677 297.707C196.311 310.022 175.371 322.503 154.856 335.149L156.955 338.554C177.436 325.929 198.342 313.468 219.675 301.173L217.677 297.707ZM281.714 260.797C261.551 272.575 240.208 284.877 217.686 297.702L219.665 301.178C242.199 288.346 263.554 276.037 283.731 264.251L281.714 260.797ZM270.328 388.207C278.072 332.332 282.872 290.471 284.718 262.657L280.727 262.392C278.891 290.058 274.107 331.802 266.366 387.658L270.328 388.207ZM260.208 467.861C260.178 465.572 260.979 457.857 262.679 444.452C264.367 431.14 266.916 412.394 270.328 388.211L266.367 387.653C262.955 411.842 260.403 430.609 258.711 443.948C257.031 457.195 256.174 465.271 256.209 467.913L260.208 467.861ZM271.4 487.061C264.727 484.467 260.829 478.356 260.205 467.769L256.212 468.005C256.891 479.512 261.304 487.427 269.951 490.79L271.4 487.061ZM284.891 485.759C280.335 488.42 275.897 488.81 271.4 487.061L269.951 490.79C275.668 493.012 281.379 492.442 286.908 489.212L284.891 485.759ZM296.313 473.882C294.559 478.451 290.861 482.429 284.926 485.739L286.873 489.232C293.38 485.605 297.869 480.992 300.047 475.314L296.313 473.882ZM295.997 440.79C296.648 451.828 296.987 460.136 297.017 465.735C297.033 468.544 296.97 470.618 296.84 471.996C296.774 472.695 296.698 473.135 296.633 473.375C296.599 473.499 296.59 473.49 296.632 473.414C296.652 473.376 296.854 472.998 297.369 472.77L298.991 476.426C299.654 476.132 299.992 475.605 300.141 475.333C300.311 475.023 300.42 474.696 300.495 474.417C300.647 473.853 300.749 473.151 300.822 472.371C300.972 470.792 301.033 468.559 301.017 465.713C300.986 460.004 300.642 451.61 299.99 440.554L295.997 440.79ZM291.306 353.581C293.13 389.617 294.693 418.688 295.997 440.79L299.99 440.554C298.687 418.468 297.124 389.41 295.301 353.378L291.306 353.581ZM291.447 264.965C290.43 290.162 290.383 319.688 291.305 353.534L295.303 353.425C294.383 319.64 294.431 290.209 295.444 265.126L291.447 264.965ZM853.252 855.98C741.842 631.948 576.839 454.725 294.568 263.39L292.324 266.701C574.201 457.769 738.65 634.512 849.671 857.761L853.252 855.98ZM857.729 851.527L850.573 855.079L852.351 858.662L859.507 855.11L857.729 851.527ZM301.699 263.408C581.377 453.741 745.672 630.69 856.827 854.209L860.409 852.428C748.866 628.131 584.022 450.703 303.949 260.101L301.699 263.408ZM404.206 269.427L303.014 259.763L302.634 263.745L403.825 273.409L404.206 269.427ZM510.982 277.191C495.249 277.866 459.725 275.297 404.226 269.429L403.805 273.407C459.221 279.266 495.064 281.877 511.153 281.188L510.982 277.191ZM537.49 265.923C536.251 269.15 533.621 271.778 529.262 273.712C524.866 275.663 518.809 276.856 510.982 277.191L511.153 281.188C519.238 280.841 525.851 279.602 530.884 277.369C535.955 275.119 539.514 271.813 541.224 267.356L537.49 265.923ZM528.718 248.458C533.575 250.346 536.443 252.748 537.789 255.47C539.116 258.153 539.165 261.558 537.49 265.923L541.224 267.356C543.154 262.328 543.352 257.695 541.374 253.697C539.416 249.737 535.525 246.813 530.168 244.73L528.718 248.458ZM381.736 251.463C427.171 249.017 462.182 247.556 486.784 247.078C499.087 246.838 508.762 246.846 515.825 247.097C519.358 247.222 522.212 247.407 524.401 247.649C526.642 247.897 528.024 248.188 528.718 248.458L530.168 244.73C528.948 244.255 527.114 243.924 524.84 243.673C522.513 243.416 519.551 243.226 515.967 243.099C508.797 242.845 499.038 242.839 486.706 243.078C462.036 243.558 426.97 245.022 381.521 247.469L381.736 251.463ZM295.791 253.414C313.437 253.394 342.078 252.743 381.693 251.465L381.564 247.467C341.952 248.745 313.366 249.394 295.786 249.414L295.791 253.414Z" fill="#222222"/>
</svg>
