<svg width="602" height="635" viewBox="0 0 602 635" fill="none" xmlns="http://www.w3.org/2000/svg">
<path fill-rule="evenodd" clip-rule="evenodd" d="M280.45 209.668L362.83 124.824L432.494 53.6008C450.267 35.8432 459.754 25.7307 460.954 23.2632C465.353 14.2159 463.865 7.87882 456.49 4.25189C446.657 -0.584025 436.082 2.36888 424.767 13.1106C415.89 23.0133 388.889 56.616 343.763 113.919L271.846 205.437C260.315 193.651 245.667 175.746 227.902 151.722C211.357 127.279 196.27 106.1 182.641 88.1871C169.413 69.4515 160.75 59.0762 156.653 57.0612C150.097 53.8373 143.361 53.0725 136.445 54.767C130.348 56.8644 126.5 59.5581 124.9 62.848C122.5 67.7829 122.139 72.7013 123.818 77.6032C125.895 81.6826 130.642 87.5837 138.056 95.3066C146.689 102.61 155.942 110.728 165.815 119.659C176.087 127.769 189.867 140.151 207.153 156.805C225.259 173.863 243.375 191.945 261.501 211.05C222.1 227.344 186.139 240.743 153.615 251.247L49.9581 285.879C23.5513 296.334 8.9481 304.439 6.14855 310.197C0.549465 321.711 0.617977 328.879 6.35409 331.7C10.4513 333.715 14.329 334.093 17.9871 332.835C23.7232 335.656 49.1107 325.21 94.1494 301.497L133.73 282.744C155.24 271.92 177.16 261.297 199.489 250.876C223.037 240.035 245.367 229.614 266.476 219.612C262.253 247.091 253.88 288.326 241.356 343.316C230.393 390.921 224.731 417.183 224.37 422.101C224.068 433.164 227.604 440.508 234.979 444.135C239.896 446.553 244.993 446.512 250.27 444.012C256.767 441.092 261.216 437.164 263.615 432.229C264.834 431.81 265.746 420.538 266.35 398.413C266.954 376.289 267.9 347.198 269.186 311.141C271.181 277.372 273.766 248.008 276.943 223.048C446.52 360.836 541.898 483.033 600.575 631.984L608.011 629.062C549.225 479.834 454.021 357.448 286.557 220.574L386.553 238.917C441.299 249.534 476.628 255.188 492.538 255.878C508.449 256.569 518.204 253.213 521.803 245.81C526.203 236.763 523.486 229.821 513.652 224.986C506.277 221.359 457.107 218.07 366.14 215.119C326.563 212.982 298 211.165 280.45 209.668Z" fill="#222222"/>
<path d="M362.83 124.824L361.4 123.426L361.395 123.431L362.83 124.824ZM280.45 209.668L279.015 208.275L276.076 211.302L280.28 211.661L280.45 209.668ZM432.494 53.6008L431.08 52.1859L431.072 52.194L431.064 52.2023L432.494 53.6008ZM460.954 23.2632L462.752 24.1378V24.1378L460.954 23.2632ZM456.49 4.25189L455.607 6.0466V6.0466L456.49 4.25189ZM424.767 13.1106L423.39 11.6601L423.331 11.7156L423.277 11.7756L424.767 13.1106ZM343.763 113.919L342.192 112.681L342.191 112.683L343.763 113.919ZM271.846 205.437L270.417 206.835L272.01 208.464L273.419 206.672L271.846 205.437ZM227.902 151.722L226.246 152.843L226.269 152.878L226.294 152.911L227.902 151.722ZM182.641 88.1871L181.008 89.3407L181.028 89.3698L181.05 89.3981L182.641 88.1871ZM156.653 57.0612L157.535 55.2665L156.653 57.0612ZM136.445 54.767L135.969 52.8244L135.88 52.8461L135.794 52.8757L136.445 54.767ZM124.9 62.848L126.699 63.7226L124.9 62.848ZM123.818 77.6032L121.925 78.2509L121.971 78.3848L122.035 78.5109L123.818 77.6032ZM138.056 95.3066L136.613 96.6917L136.685 96.7665L136.764 96.8335L138.056 95.3066ZM165.815 119.659L164.473 121.142L164.523 121.188L164.575 121.229L165.815 119.659ZM207.153 156.805L205.766 158.246L205.774 158.253L205.782 158.261L207.153 156.805ZM261.501 211.05L262.265 212.898L264.956 211.786L262.952 209.674L261.501 211.05ZM153.615 251.247L153.001 249.344L152.991 249.347L152.981 249.35L153.615 251.247ZM49.9581 285.879L49.3244 283.982L49.2727 284L49.222 284.02L49.9581 285.879ZM6.14855 310.197L4.34992 309.322H4.34992L6.14855 310.197ZM6.35409 331.7L5.47147 333.495H5.47148L6.35409 331.7ZM17.9871 332.835L18.8697 331.04L18.1232 330.673L17.3365 330.944L17.9871 332.835ZM94.1494 301.497L93.2931 299.69L93.255 299.708L93.2177 299.727L94.1494 301.497ZM133.73 282.744L134.587 284.551L134.608 284.541L134.629 284.53L133.73 282.744ZM199.489 250.876L198.652 249.059L198.643 249.063L199.489 250.876ZM266.476 219.612L268.453 219.916L269.026 216.191L265.62 217.805L266.476 219.612ZM241.356 343.316L243.305 343.765L243.306 343.761L241.356 343.316ZM224.37 422.101L222.375 421.955L222.372 422.001L222.371 422.047L224.37 422.101ZM234.979 444.135L235.862 442.34L234.979 444.135ZM250.27 444.012L249.451 442.187L249.432 442.196L249.414 442.204L250.27 444.012ZM263.615 432.229L262.965 430.338L262.18 430.608L261.816 431.355L263.615 432.229ZM266.35 398.413L268.35 398.468L266.35 398.413ZM269.186 311.141L267.19 311.023L267.188 311.046L267.188 311.069L269.186 311.141ZM276.943 223.048L278.204 221.496L275.413 219.228L274.959 222.795L276.943 223.048ZM600.575 631.984L598.715 632.717L599.447 634.577L601.307 633.846L600.575 631.984ZM608.011 629.062L608.742 630.924L610.605 630.191L609.872 628.329L608.011 629.062ZM286.557 220.574L286.918 218.607L285.291 222.122L286.557 220.574ZM386.553 238.917L386.934 236.954L386.924 236.952L386.914 236.95L386.553 238.917ZM492.538 255.878L492.625 253.88L492.538 255.878ZM521.803 245.81L523.602 246.685L521.803 245.81ZM513.652 224.986L514.535 223.191L513.652 224.986ZM366.14 215.119L366.032 217.116L366.053 217.117L366.075 217.118L366.14 215.119ZM361.395 123.431L279.015 208.275L281.885 211.061L364.265 126.217L361.395 123.431ZM431.064 52.2023L361.4 123.426L364.26 126.223L433.924 54.9992L431.064 52.2023ZM459.155 22.3886C458.984 22.7398 458.34 23.646 456.976 25.2524C455.671 26.7888 453.842 28.812 451.48 31.3298C446.759 36.3626 439.962 43.3123 431.08 52.1859L433.908 55.0156C442.799 46.1316 449.632 39.1463 454.397 34.0665C456.779 31.5281 458.658 29.4507 460.024 27.8421C461.331 26.3035 462.323 25.0203 462.752 24.1378L459.155 22.3886ZM455.607 6.0466C458.911 7.67137 460.618 9.74434 461.19 12.1821C461.785 14.7159 461.258 18.0646 459.155 22.3886L462.752 24.1378C465.049 19.4146 465.977 15.071 465.084 11.2678C464.169 7.36839 461.444 4.45934 457.373 2.45718L455.607 6.0466ZM426.144 14.5611C431.658 9.32615 436.853 6.12548 441.722 4.76593C446.537 3.42145 451.133 3.84609 455.607 6.0466L457.373 2.45718C452.014 -0.178232 446.406 -0.695093 440.646 0.913327C434.94 2.50668 429.191 6.15332 423.39 11.6601L426.144 14.5611ZM345.334 115.156C390.483 57.8246 417.433 24.288 426.256 14.4456L423.277 11.7756C414.346 21.7387 387.295 55.4075 342.192 112.681L345.334 115.156ZM273.419 206.672L345.336 115.154L342.191 112.683L270.274 204.201L273.419 206.672ZM226.294 152.911C244.078 176.96 258.789 194.951 270.417 206.835L273.276 204.038C261.841 192.35 247.257 174.532 229.51 150.533L226.294 152.911ZM181.05 89.3981C194.65 107.274 209.715 128.421 226.246 152.843L229.559 150.601C212.998 126.136 197.89 104.926 184.233 86.9761L181.05 89.3981ZM155.77 58.8559C156.503 59.2164 157.63 60.0612 159.188 61.5749C160.715 63.0572 162.546 65.071 164.688 67.6357C168.969 72.7633 174.406 79.9912 181.008 89.3407L184.275 87.0335C177.648 77.6474 172.14 70.3198 167.758 65.0721C165.568 62.4492 163.638 60.3204 161.975 58.7051C160.344 57.1212 158.851 55.9135 157.535 55.2665L155.77 58.8559ZM136.921 56.7095C143.368 55.1299 149.624 55.8334 155.77 58.8559L157.535 55.2665C150.57 51.8412 143.354 51.0151 135.969 52.8244L136.921 56.7095ZM126.699 63.7226C127.942 61.1655 131.148 58.7043 137.095 56.6582L135.794 52.8757C129.548 55.0244 125.057 57.9506 123.101 61.9734L126.699 63.7226ZM125.71 76.9554C124.214 72.5853 124.515 68.2135 126.699 63.7226L123.101 61.9734C120.486 67.3523 120.065 72.8173 121.925 78.2509L125.71 76.9554ZM139.498 93.9215C132.087 86.202 127.531 80.4861 125.6 76.6954L122.035 78.5109C124.26 82.8791 129.196 88.9655 136.613 96.6917L139.498 93.9215ZM167.157 118.176C157.27 109.232 148 101.1 139.347 93.7796L136.764 96.8335C145.378 104.12 154.614 112.223 164.473 121.142L167.157 118.176ZM208.541 155.365C191.239 138.696 177.404 126.26 167.054 118.09L164.575 121.229C174.77 129.277 188.494 141.606 205.766 158.246L208.541 155.365ZM262.952 209.674C244.802 190.543 226.66 172.434 208.525 155.35L205.782 158.261C223.859 175.292 241.949 193.347 260.05 212.427L262.952 209.674ZM154.23 253.15C186.814 242.627 222.827 229.208 262.265 212.898L260.737 209.202C221.374 225.481 185.463 238.86 153.001 249.344L154.23 253.15ZM50.5919 287.776L154.249 253.144L152.981 249.35L49.3244 283.982L50.5919 287.776ZM7.94719 311.071C8.4536 310.03 9.61765 308.667 11.7075 307.003C13.7649 305.364 16.5743 303.545 20.1712 301.548C27.3629 297.556 37.5241 292.953 50.6943 287.739L49.222 284.02C35.9854 289.26 25.6415 293.937 18.23 298.051C14.5253 300.107 11.5086 302.047 9.21525 303.874C6.95446 305.675 5.24328 307.485 4.34992 309.322L7.94719 311.071ZM7.23671 329.905C6.11737 329.355 5.35045 328.636 4.84391 327.765C4.32968 326.88 4.01514 325.718 4.00053 324.189C3.97072 321.071 5.19243 316.737 7.94719 311.071L4.34992 309.322C1.50558 315.172 -0.0379917 320.178 0.00071255 324.228C0.0203634 326.284 0.448526 328.162 1.38545 329.774C2.33006 331.4 3.72276 332.635 5.47147 333.495L7.23671 329.905ZM17.3365 330.944C14.2719 331.998 10.9488 331.731 7.2367 329.905L5.47148 333.495C9.95379 335.699 14.3861 336.189 18.6377 334.726L17.3365 330.944ZM93.2177 299.727C70.7156 311.575 53.1747 320.08 40.5688 325.267C34.2592 327.863 29.2466 329.602 25.4979 330.521C23.6223 330.98 22.1213 331.219 20.9663 331.273C19.7735 331.329 19.145 331.176 18.8697 331.04L17.1045 334.63C18.2633 335.2 19.6829 335.337 21.1523 335.269C22.6596 335.199 24.4349 334.899 26.4497 334.406C30.482 333.418 35.7067 331.593 42.0908 328.966C54.8723 323.707 72.5445 315.132 95.0812 303.267L93.2177 299.727ZM132.874 280.936L93.2931 299.69L95.0058 303.305L134.587 284.551L132.874 280.936ZM198.643 249.063C176.296 259.493 154.359 270.124 132.831 280.957L134.629 284.53C156.121 273.715 178.023 263.101 200.335 252.688L198.643 249.063ZM265.62 217.805C244.518 227.803 222.195 238.221 198.652 249.059L200.325 252.692C223.88 241.849 246.216 231.425 267.333 221.42L265.62 217.805ZM243.306 343.761C255.832 288.76 264.219 247.468 268.453 219.916L264.5 219.308C260.288 246.714 251.928 287.891 239.406 342.872L243.306 343.761ZM226.364 422.248C226.532 419.965 227.994 412.347 230.842 399.138C233.67 386.021 237.824 367.565 243.305 343.765L239.407 342.868C233.925 366.673 229.766 385.15 226.932 398.295C224.118 411.348 222.569 419.32 222.375 421.955L226.364 422.248ZM235.862 442.34C229.437 439.181 226.08 432.757 226.369 422.156L222.371 422.047C222.056 433.57 225.771 441.836 234.097 445.93L235.862 442.34ZM249.414 442.204C244.646 444.463 240.191 444.469 235.862 442.34L234.097 445.93C239.601 448.637 245.34 448.561 251.127 445.819L249.414 442.204ZM261.816 431.355C259.676 435.756 255.649 439.401 249.451 442.187L251.09 445.836C257.885 442.782 262.755 438.572 265.414 433.104L261.816 431.355ZM264.351 398.359C264.049 409.412 263.671 417.718 263.22 423.299C262.993 426.099 262.753 428.159 262.504 429.521C262.378 430.212 262.264 430.644 262.179 430.878C262.135 430.998 262.126 430.989 262.175 430.916C262.198 430.88 262.432 430.521 262.965 430.338L264.266 434.121C264.951 433.885 265.334 433.389 265.506 433.131C265.702 432.836 265.838 432.52 265.937 432.249C266.137 431.699 266.299 431.009 266.44 430.239C266.724 428.677 266.977 426.458 267.207 423.622C267.667 417.931 268.047 409.539 268.35 398.468L264.351 398.359ZM267.188 311.069C265.901 347.129 264.955 376.226 264.351 398.359L268.35 398.468C268.953 376.351 269.899 347.267 271.185 311.212L267.188 311.069ZM274.959 222.795C271.775 247.812 269.186 277.223 267.19 311.023L271.183 311.259C273.176 277.521 275.758 248.203 278.927 223.3L274.959 222.795ZM602.436 631.251C543.599 481.893 447.965 359.433 278.204 221.496L275.681 224.6C445.074 362.238 540.197 484.172 598.715 632.717L602.436 631.251ZM607.279 627.201L599.844 630.123L601.307 633.846L608.742 630.924L607.279 627.201ZM285.291 222.122C452.57 358.845 547.522 480.969 606.15 629.795L609.872 628.329C550.927 478.699 455.472 356.051 287.823 219.025L285.291 222.122ZM386.914 236.95L286.918 218.607L286.196 222.541L386.192 240.884L386.914 236.95ZM492.625 253.88C476.893 253.197 441.721 247.578 386.934 236.954L386.172 240.88C440.877 251.489 476.363 257.178 492.452 257.876L492.625 253.88ZM520.005 244.936C518.493 248.045 515.646 250.437 511.137 251.988C506.589 253.552 500.452 254.22 492.625 253.88L492.452 257.876C500.536 258.227 507.231 257.562 512.438 255.77C517.684 253.966 521.514 250.978 523.602 246.685L520.005 244.936ZM512.77 226.78C517.445 229.08 520.096 231.72 521.203 234.548C522.294 237.335 522.049 240.731 520.005 244.936L523.602 246.685C525.957 241.842 526.554 237.244 524.928 233.09C523.318 228.976 519.693 225.727 514.535 223.191L512.77 226.78ZM366.075 217.118C411.551 218.593 446.559 220.152 471.11 221.794C483.388 222.616 493.027 223.456 500.042 224.314C503.551 224.743 506.378 225.174 508.538 225.603C510.75 226.043 512.101 226.451 512.77 226.78L514.535 223.191C513.36 222.613 511.561 222.126 509.318 221.68C507.022 221.223 504.086 220.779 500.527 220.344C493.406 219.473 483.684 218.626 471.376 217.803C446.757 216.157 411.695 214.596 366.205 213.12L366.075 217.118ZM280.28 211.661C297.863 213.16 326.453 214.979 366.032 217.116L366.248 213.122C326.673 210.985 298.136 209.169 280.62 207.675L280.28 211.661Z" fill="#222222"/>
</svg>
