<svg width="1335" height="368" viewBox="0 0 1335 368" fill="none" xmlns="http://www.w3.org/2000/svg">
<path d="M241.447 20.1584H183.759C178.951 20.1584 175.586 21.6006 173.663 24.485C172.061 27.0489 171.26 32.6575 171.26 41.3108V199.473H241.447C261.638 199.473 278.624 190.82 292.405 173.514C306.507 155.887 313.558 134.574 313.558 109.576C313.558 84.2567 306.507 63.1042 292.405 46.1182C278.624 28.8116 261.638 20.1584 241.447 20.1584ZM244.332 205.723H171.26V333.599C171.26 342.252 172.061 348.021 173.663 350.906C175.586 353.47 179.112 354.752 184.24 354.752H212.122V361.001H110.206V354.752H138.089C143.217 354.752 146.582 353.47 148.184 350.906C150.107 348.021 151.069 342.252 151.069 333.599V41.3108C151.069 32.6575 150.107 27.0489 148.184 24.485C146.582 21.6006 143.217 20.1584 138.089 20.1584H110.206V13.9088H244.332C269.971 13.9088 291.284 22.8825 308.27 40.8301C325.576 58.7776 334.23 81.6928 334.23 109.576C334.23 138.099 325.576 161.175 308.27 178.802C290.963 196.749 269.651 205.723 244.332 205.723Z" fill="#222222"/>
<path d="M420.022 354.752V361.001H330.125V354.752H353.2C358.007 354.752 361.372 353.63 363.295 351.386C365.218 348.823 366.18 344.656 366.18 338.887V34.5805C366.18 27.5297 365.058 22.8826 362.815 20.6391C360.571 18.3957 355.604 17.2739 347.912 17.2739H330.125V11.0244L383.006 7.6592V338.887C383.006 344.656 383.967 348.823 385.89 351.386C387.813 353.63 391.178 354.752 395.986 354.752H420.022Z" fill="#222222"/>
<path d="M445.058 217.741C439.61 217.741 435.283 215.819 432.078 211.973C429.194 208.127 427.752 203.48 427.752 198.031C427.752 178.161 435.123 162.777 449.866 151.88C464.929 140.343 481.274 134.574 498.901 134.574C544.731 134.574 567.646 157.97 567.646 204.762C567.646 207.646 567.326 225.754 566.685 259.085C566.364 275.75 566.204 294.499 566.204 315.331C566.204 331.035 567.005 341.932 568.608 348.021C570.531 354.111 574.216 357.155 579.665 357.155C583.831 357.155 587.357 353.95 590.241 347.541C593.446 341.131 595.048 332.317 595.048 321.1H600.337C600.337 334.24 597.933 344.977 593.125 353.309C588.639 361.642 582.549 365.809 574.857 365.809C565.563 365.809 559.153 361.161 555.628 351.867C552.423 342.252 550.66 325.907 550.34 302.832C544.571 319.818 534.475 334.561 520.053 347.06C505.631 359.559 488.966 365.809 470.057 365.809C455.635 365.809 444.257 361.322 435.924 352.348C427.592 343.054 423.425 331.035 423.425 316.293C423.425 295.781 433.521 277.834 453.712 262.45C474.544 246.425 506.432 238.253 549.378 237.932C549.378 233.125 549.378 228.157 549.378 223.03C549.699 217.581 549.859 213.575 549.859 211.011C550.18 208.127 550.34 206.044 550.34 204.762C549.378 163.098 531.751 142.266 497.459 142.266C483.998 142.266 471.499 146.272 459.961 154.284C448.744 161.976 441.373 172.071 437.847 184.571C440.411 183.609 442.815 183.128 445.058 183.128C451.789 183.128 456.436 186.013 459 191.782C461.884 197.55 461.884 203.319 459 209.088C456.436 214.857 451.789 217.741 445.058 217.741ZM476.787 357.155C493.132 357.155 508.836 349.784 523.899 335.041C539.603 320.299 547.776 300.749 548.417 276.391C548.417 274.468 548.577 269.341 548.898 261.008C549.218 252.675 549.378 247.227 549.378 244.663C507.073 244.983 477.428 253.637 460.442 270.623C447.302 284.724 440.732 299.146 440.732 313.889C440.732 327.35 443.937 337.926 450.346 345.618C456.756 353.309 465.57 357.155 476.787 357.155Z" fill="#222222"/>
<path d="M820.018 354.752V361.001H732.524V354.752H754.157C759.285 354.752 762.811 353.63 764.734 351.386C766.657 348.823 767.618 344.656 767.618 338.887V222.549C767.618 194.666 764.253 174.635 757.523 162.457C751.113 150.278 739.415 144.189 722.429 144.189C704.481 144.189 687.816 154.284 672.432 174.475C657.369 194.346 649.837 216.62 649.837 241.298V338.887C649.837 344.656 650.799 348.823 652.722 351.386C654.645 353.63 658.01 354.752 662.817 354.752H684.931V361.001H596.956V354.752H620.032C624.839 354.752 628.204 353.63 630.127 351.386C632.05 348.823 633.012 344.656 633.012 338.887V163.418C633.012 156.367 632.05 151.72 630.127 149.477C628.204 147.233 623.878 146.112 617.147 146.112H596.956V139.862L649.357 136.016V207.165C656.087 184.731 666.182 167.104 679.643 154.284C693.424 141.144 708.968 134.574 726.275 134.574C747.427 134.574 762.33 141.625 770.983 155.726C779.957 169.507 784.444 190.82 784.444 219.664V338.887C784.444 344.656 785.405 348.823 787.328 351.386C789.251 353.63 792.777 354.752 797.905 354.752H820.018Z" fill="#222222"/>
<path d="M925.815 286.006H932.064C931.423 310.364 927.257 330.074 919.565 345.137C911.873 359.879 900.976 367.251 886.875 367.251C872.132 367.251 861.556 362.604 855.146 353.309C849.057 343.695 846.012 327.189 846.012 303.793V148.515H814.283V140.823H831.59C837.359 140.823 841.685 139.541 844.57 136.978C847.775 134.414 850.178 129.767 851.781 123.036C854.345 100.922 856.268 78.4878 857.55 55.7329H862.838V140.823H924.372V148.515H862.838V302.351C862.838 322.222 865.242 336.644 870.049 345.618C874.856 354.271 882.548 358.598 893.124 358.598C902.419 358.598 910.11 351.867 916.2 338.407C922.289 324.946 925.494 307.479 925.815 286.006Z" fill="#222222"/>
<path d="M959.128 74.4817C959.128 69.6743 960.731 65.5079 963.936 61.9825C967.14 58.4571 970.986 56.6944 975.473 56.6944C979.96 56.6944 983.646 58.4571 986.53 61.9825C989.415 65.5079 990.857 69.6743 990.857 74.4817C990.857 79.2891 989.415 83.4555 986.53 86.9809C983.646 90.1858 979.96 91.7883 975.473 91.7883C970.986 91.7883 967.14 90.0255 963.936 86.5001C960.731 82.9747 959.128 78.9686 959.128 74.4817ZM967.781 338.887V163.418C967.781 156.367 966.66 151.72 964.416 149.477C962.493 147.233 957.846 146.112 950.475 146.112H931.726V139.862L984.607 136.016V338.887C984.607 344.656 985.569 348.823 987.492 351.386C989.415 353.63 992.78 354.752 997.587 354.752H1021.62V361.001H931.726V354.752H954.802C959.609 354.752 962.974 353.63 964.897 351.386C966.82 348.823 967.781 344.656 967.781 338.887Z" fill="#222222"/>
<path d="M1176.31 246.586H1039.3V252.835C1039.3 284.884 1045.23 310.684 1057.09 330.234C1069.27 349.464 1085.61 359.078 1106.12 359.078C1120.55 359.078 1133.53 353.47 1145.06 342.252C1156.6 330.715 1164.77 315.331 1169.58 296.102L1174.39 298.025C1170.22 316.293 1161.57 332.477 1148.43 346.579C1135.61 360.36 1120.71 367.251 1103.72 367.251C1076.8 367.251 1056.45 355.553 1042.67 332.157C1028.89 308.761 1022 281.68 1022 250.912C1022 232.965 1024.72 215.338 1030.17 198.031C1035.94 181.045 1045.39 166.303 1058.53 153.803C1071.67 140.984 1087.54 134.574 1106.12 134.574C1128.88 134.574 1146.19 145.31 1158.04 166.783C1170.22 188.256 1176.31 214.857 1176.31 246.586ZM1105.64 140.823C1086.74 140.823 1071.35 150.118 1059.49 168.706C1047.96 186.333 1041.39 209.889 1039.78 239.375H1147.47C1154.2 239.375 1157.56 235.529 1157.56 227.837C1157.56 204.441 1152.76 184.09 1143.14 166.783C1133.85 149.477 1121.35 140.823 1105.64 140.823Z" fill="#222222"/>
<path d="M1330.53 174.475V176.398C1330.85 184.09 1328.28 189.538 1322.84 192.743C1317.71 195.628 1312.58 195.628 1307.45 192.743C1302.32 189.538 1299.92 184.09 1300.24 176.398C1300.24 171.591 1301.68 167.424 1304.57 163.899C1307.45 160.053 1310.98 158.13 1315.14 158.13C1315.46 158.13 1316.11 158.13 1317.07 158.13L1318.51 158.611C1314.34 148.035 1306.81 142.746 1295.91 142.746C1285.02 142.746 1274.76 149.957 1265.15 164.38C1255.85 178.481 1248.48 195.948 1243.03 216.78C1237.91 237.291 1235.34 257.803 1235.34 278.314V338.887C1235.34 344.656 1236.3 348.823 1238.23 351.386C1240.15 353.63 1243.51 354.752 1248.32 354.752H1276.2V361.001H1182.46V354.752H1205.54C1210.34 354.752 1213.71 353.63 1215.63 351.386C1217.55 348.823 1218.52 344.656 1218.52 338.887V162.937C1218.52 156.207 1217.55 151.72 1215.63 149.477C1213.71 147.233 1209.54 146.112 1203.13 146.112H1182.46V139.862L1234.38 136.016V236.009C1239.19 207.165 1247.04 183.609 1257.94 165.341C1268.83 146.112 1281.49 136.497 1295.91 136.497C1305.53 136.497 1313.54 139.862 1319.95 146.592C1326.68 153.002 1330.21 162.296 1330.53 174.475Z" fill="#222222"/>
<path d="M32.7237 361.305V362.111H21.2537V361.305H24.2297C24.891 361.305 25.3457 361.16 25.5937 360.871C25.8417 360.54 25.9657 360.003 25.9657 359.259V334.645H25.7177L15.9837 362.855H15.3637L6.37367 334.645H5.93967V359.259C5.93967 360.003 6.06367 360.54 6.31167 360.871C6.55967 361.16 7.01434 361.305 7.67567 361.305H10.6517V362.111H0.54567V361.305H3.52167C4.14167 361.305 4.57567 361.16 4.82367 360.871C5.07167 360.54 5.19567 360.003 5.19567 359.259V336.567C5.19567 335.823 5.07167 335.306 4.82367 335.017C4.57567 334.686 4.14167 334.521 3.52167 334.521H0.54567V333.715H8.35767L16.4797 359.569L25.2217 333.715H32.7237V334.521H29.8097C29.1897 334.521 28.7557 334.686 28.5077 335.017C28.2597 335.306 28.1357 335.823 28.1357 336.567V359.259C28.1357 360.003 28.2597 360.54 28.5077 360.871C28.7557 361.16 29.1897 361.305 29.8097 361.305H32.7237Z" fill="#222222"/>
<path d="M52.2241 358.143C53.7535 355.497 54.5181 352.087 54.5181 347.913C54.5181 343.738 53.7535 340.328 52.2241 337.683C50.7361 335.037 48.7108 333.715 46.1481 333.715C43.6268 333.715 41.5808 335.058 40.0101 337.745C38.4808 340.39 37.7161 343.779 37.7161 347.913C37.7161 352.087 38.4808 355.497 40.0101 358.143C41.5395 360.788 43.5855 362.111 46.1481 362.111C48.7108 362.111 50.7361 360.788 52.2241 358.143ZM53.8981 358.639C51.9968 361.491 49.4135 362.917 46.1481 362.917C42.8828 362.917 40.2995 361.47 38.3981 358.577C36.4555 355.642 35.4841 352.087 35.4841 347.913C35.4841 343.738 36.4555 340.183 38.3981 337.249C40.2995 334.355 42.8828 332.909 46.1481 332.909C49.4135 332.909 51.9968 334.355 53.8981 337.249C55.8408 340.142 56.8121 343.697 56.8121 347.913C56.8121 352.129 55.8408 355.704 53.8981 358.639Z" fill="#222222"/>
<path d="M88.4476 361.305V362.111H77.1636V361.305H79.9536C80.615 361.305 81.0696 361.16 81.3176 360.871C81.5656 360.54 81.6896 360.003 81.6896 359.259V337.869L66.3756 359.383C66.3756 360.085 66.479 360.581 66.6856 360.871C66.9336 361.16 67.3883 361.305 68.0496 361.305H70.9016V362.111H59.5556V361.305H62.5316C63.1516 361.305 63.5856 361.16 63.8336 360.871C64.0816 360.54 64.2056 360.003 64.2056 359.259V336.567C64.2056 335.823 64.0816 335.306 63.8336 335.017C63.5856 334.686 63.1516 334.521 62.5316 334.521H59.5556V333.715H70.9016V334.521H68.0496C67.4296 334.521 66.9956 334.686 66.7476 335.017C66.4996 335.306 66.3756 335.823 66.3756 336.567V357.957L81.6896 336.443C81.6896 335.74 81.5656 335.244 81.3176 334.955C81.0696 334.665 80.615 334.521 79.9536 334.521H77.1636V333.715H88.4476V334.521H85.5336C84.8723 334.521 84.4176 334.665 84.1696 334.955C83.963 335.244 83.8596 335.781 83.8596 336.567V359.259C83.8596 360.044 83.963 360.581 84.1696 360.871C84.4176 361.16 84.8723 361.305 85.5336 361.305H88.4476ZM74.0016 328.755C76.9776 328.755 78.7756 327.721 79.3956 325.655C79.313 325.696 79.1476 325.717 78.8996 325.717C78.197 325.717 77.701 325.427 77.4116 324.849C77.1636 324.229 77.1636 323.609 77.4116 322.989C77.701 322.369 78.1763 322.059 78.8376 322.059C79.2923 322.059 79.685 322.265 80.0156 322.679C80.3876 323.092 80.5736 323.567 80.5736 324.105C80.5323 326.089 79.8503 327.515 78.5276 328.383C77.2463 329.209 75.7376 329.602 74.0016 329.561C72.1003 329.561 70.5296 329.127 69.2896 328.259C68.0496 327.349 67.4296 325.965 67.4296 324.105C67.4296 323.567 67.595 323.092 67.9256 322.679C68.2563 322.265 68.6696 322.059 69.1656 322.059C69.827 322.059 70.2816 322.369 70.5296 322.989C70.819 323.609 70.819 324.229 70.5296 324.849C70.2816 325.427 69.8063 325.717 69.1036 325.717C68.8143 325.717 68.649 325.696 68.6076 325.655C69.1863 327.721 70.9843 328.755 74.0016 328.755Z" fill="#222222"/>
<path d="M53.7953 33.6652C53.7953 34.98 53.0832 35.6922 51.6588 35.8017C51.0015 35.8017 45.4137 37.5547 34.8956 41.0608L27.9931 43.1973C29.7461 46.1555 32.1017 49.6615 35.06 53.7154C41.3051 62.1518 44.4277 66.6439 44.4277 67.1917C44.4277 68.2873 44.0442 68.9995 43.2772 69.3282C42.4007 69.5473 41.7981 69.5473 41.4694 69.3282C40.9216 69.3282 40.4286 68.8351 39.9903 67.8491L35.553 59.4675C33.1426 54.8658 30.294 49.6615 27.007 43.8546C25.6923 46.0459 24.3227 48.4015 22.8984 50.9215C21.5836 53.3319 20.3237 55.6875 19.1185 57.9883C18.0228 60.1796 17.3107 61.5492 16.982 62.097C14.7907 66.9178 13.2568 69.3282 12.3803 69.3282C12.0516 69.5473 11.449 69.5473 10.5725 69.3282C9.91513 68.7804 9.58644 68.0682 9.58644 67.1917C9.58644 66.7534 10.4082 65.3839 12.0516 63.0831L18.9541 53.7154C21.9123 49.6615 24.268 46.1555 26.021 43.1973L19.1185 41.0608C8.81949 37.5547 3.23175 35.8017 2.35524 35.8017C0.930913 35.6922 0.21875 34.98 0.21875 33.6652C0.21875 32.1313 0.930913 31.3644 2.35524 31.3644C2.79349 31.3644 4.49173 32.0218 7.44995 33.3365C10.5177 34.6513 14.1333 36.2948 18.2967 38.2669L26.3497 42.0468C26.2401 37.4452 26.0758 33.3365 25.8566 29.7209C25.7471 25.9958 25.5827 23.1471 25.3636 21.175C25.254 19.2028 25.1445 17.6142 25.0349 16.409C24.9253 15.0942 24.8158 14.1629 24.7062 13.6151C24.7062 13.0673 24.7062 12.7386 24.7062 12.629C24.7062 11.2047 25.4732 10.4925 27.007 10.4925C28.4314 10.4925 29.1435 11.2047 29.1435 12.629C29.1435 12.8482 29.0888 13.2316 28.9792 13.7794C28.9792 14.2177 28.9244 14.8751 28.8148 15.7516C28.8148 16.6281 28.8148 17.4498 28.8148 18.2168L28.1575 29.5566C28.0479 31.4192 27.8836 33.7748 27.6644 36.6234C27.5549 39.4721 27.5001 41.2799 27.5001 42.0468L35.7173 38.4313C45.3589 33.72 50.6728 31.3644 51.6588 31.3644C53.0832 31.3644 53.7953 32.1313 53.7953 33.6652Z" fill="#222222"/>
<path d="M453.314 32.5544C453.314 30.4051 452.591 28.6691 451.144 27.3464C449.739 26.0651 448.127 25.4244 446.308 25.4244H440.108V37.3284C440.108 38.0724 440.232 38.6097 440.48 38.9404C440.728 39.2297 441.162 39.3744 441.782 39.3744H446.37C448.437 39.3744 450.111 38.7957 451.392 37.6384C452.673 36.4397 453.314 34.7451 453.314 32.5544ZM446.308 12.4664H441.72C441.1 12.4664 440.666 12.6317 440.418 12.9624C440.211 13.2517 440.108 13.7684 440.108 14.5124V24.6184H446.37C448.023 24.6184 449.367 24.0191 450.4 22.8204C451.433 21.6217 451.95 20.1957 451.95 18.5424C451.95 16.8891 451.413 15.4631 450.338 14.2644C449.305 13.0657 447.961 12.4664 446.308 12.4664ZM455.484 32.6164C455.484 35.0137 454.699 36.8737 453.128 38.1964C451.557 39.4777 449.47 40.1184 446.866 40.1184H433.288V39.3124H436.264C436.884 39.3124 437.318 39.1677 437.566 38.8784C437.814 38.5477 437.938 38.0104 437.938 37.2664V14.5744C437.938 13.8304 437.814 13.3137 437.566 13.0244C437.318 12.6937 436.884 12.5284 436.264 12.5284H433.288V11.7224H446.866C449.015 11.7224 450.751 12.3631 452.074 13.6444C453.397 14.8844 454.058 16.4757 454.058 18.4184C454.058 19.9891 453.562 21.3944 452.57 22.6344C451.578 23.8744 450.235 24.6804 448.54 25.0524C450.731 25.3831 452.425 26.2511 453.624 27.6564C454.864 29.0204 455.484 30.6737 455.484 32.6164Z" fill="#222222"/>
<path d="M487.053 39.3124V40.1184H475.769V39.3124H478.559C479.22 39.3124 479.675 39.1677 479.923 38.8784C480.171 38.5477 480.295 38.0104 480.295 37.2664V15.8764L464.981 37.3904C464.981 38.0931 465.084 38.5891 465.291 38.8784C465.539 39.1677 465.994 39.3124 466.655 39.3124H469.507V40.1184H458.161V39.3124H461.137C461.757 39.3124 462.191 39.1677 462.439 38.8784C462.687 38.5477 462.811 38.0104 462.811 37.2664V14.5744C462.811 13.8304 462.687 13.3137 462.439 13.0244C462.191 12.6937 461.757 12.5284 461.137 12.5284H458.161V11.7224H469.507V12.5284H466.655C466.035 12.5284 465.601 12.6937 465.353 13.0244C465.105 13.3137 464.981 13.8304 464.981 14.5744V35.9644L480.295 14.4504C480.295 13.7477 480.171 13.2517 479.923 12.9624C479.675 12.6731 479.22 12.5284 478.559 12.5284H475.769V11.7224H487.053V12.5284H484.139C483.478 12.5284 483.023 12.6731 482.775 12.9624C482.568 13.2517 482.465 13.7891 482.465 14.5744V37.2664C482.465 38.0517 482.568 38.5891 482.775 38.8784C483.023 39.1677 483.478 39.3124 484.139 39.3124H487.053Z" fill="#222222"/>
<path d="M504.276 40.9244C502.251 40.9244 500.494 40.1597 499.006 38.6304C497.518 37.0597 496.464 34.9517 495.844 32.3064V48.9224C495.844 49.6664 495.968 50.1831 496.216 50.4724C496.464 50.8031 496.919 50.9684 497.58 50.9684H500.618V51.7744H489.086V50.9684H492C492.62 50.9684 493.054 50.8031 493.302 50.4724C493.55 50.1831 493.674 49.6664 493.674 48.9224V14.6364C493.674 13.7271 493.55 13.1277 493.302 12.8384C493.054 12.5491 492.496 12.4044 491.628 12.4044H489.086V11.5984L495.782 11.1024V19.7204C496.402 17.0751 497.456 14.9464 498.944 13.3344C500.473 11.7224 502.251 10.9164 504.276 10.9164C507.211 10.9164 509.608 12.3837 511.468 15.3184C513.328 18.2117 514.258 21.7457 514.258 25.9204C514.258 30.0951 513.328 33.6291 511.468 36.5224C509.608 39.4571 507.211 40.9244 504.276 40.9244ZM495.844 25.9204C495.844 29.6404 496.567 32.9057 498.014 35.7164C499.502 38.5271 501.383 39.9324 503.656 39.9324C506.053 39.9324 508.037 38.6304 509.608 36.0264C511.179 33.3397 511.964 29.9711 511.964 25.9204C511.964 21.8697 511.179 18.5217 509.608 15.8764C508.079 13.2311 506.095 11.9084 503.656 11.9084C501.424 11.9084 499.564 13.2931 498.076 16.0624C496.588 18.8731 495.844 22.1591 495.844 25.9204Z" fill="#222222"/>
<path d="M517.547 11.7224H538.255L538.875 21.2084H538.131C537.801 18.8111 537.553 17.1577 537.387 16.2484C537.263 15.3391 537.036 14.5537 536.705 13.8924C536.375 13.1897 536.044 12.8177 535.713 12.7764C535.424 12.6937 534.866 12.6111 534.039 12.5284H530.009C529.596 12.5284 529.307 12.6317 529.141 12.8384C529.017 13.0451 528.955 13.4377 528.955 14.0164V37.2664C528.955 38.0104 529.079 38.5477 529.327 38.8784C529.575 39.1677 530.03 39.3124 530.691 39.3124H533.605V40.1184H522.197V39.3124H525.111C525.773 39.3124 526.227 39.1677 526.475 38.8784C526.723 38.5477 526.847 38.0104 526.847 37.2664V14.0164C526.847 13.4377 526.765 13.0451 526.599 12.8384C526.475 12.6317 526.207 12.5284 525.793 12.5284H521.825C520.957 12.6111 520.379 12.6937 520.089 12.7764C519.8 12.8177 519.469 13.1691 519.097 13.8304C518.767 14.4504 518.519 15.2564 518.353 16.2484C518.188 17.2404 517.961 18.8937 517.671 21.2084H516.927L517.547 11.7224Z" fill="#222222"/>
<path d="M544.118 45.1404C544.696 45.1404 545.151 45.3264 545.482 45.6984C545.812 46.1117 545.978 46.6284 545.978 47.2484C545.978 47.7857 545.792 48.2611 545.42 48.6744C545.048 49.0877 544.614 49.2944 544.118 49.2944C543.787 49.2944 543.477 49.2117 543.188 49.0464C543.684 50.6997 544.82 51.5264 546.598 51.5264C549.202 51.5264 551.64 47.7857 553.914 40.3044L543.622 14.5744C543.084 13.2104 542.196 12.5284 540.956 12.5284H539.84V11.7224H549.14V12.5284H546.722C546.019 12.5284 545.668 12.7764 545.668 13.2724C545.668 13.5617 545.792 13.9957 546.04 14.5744L554.968 37.6384L562.036 14.5744C562.16 14.2024 562.222 13.8511 562.222 13.5204C562.222 12.8591 561.87 12.5284 561.168 12.5284H558.688V11.7224H566.748V12.5284H565.57C564.288 12.5284 563.42 13.2104 562.966 14.5744L554.782 40.3664C554.079 42.7637 553.273 44.8924 552.364 46.7524C550.917 50.1831 548.954 52.0431 546.474 52.3324C545.11 52.3324 544.035 51.8984 543.25 51.0304C542.506 50.2037 542.134 49.0464 542.134 47.5584C542.134 46.8971 542.299 46.3184 542.63 45.8224C543.002 45.3677 543.498 45.1404 544.118 45.1404Z" fill="#222222"/>
<path d="M571.669 21.6424C570.967 21.6424 570.409 21.3944 569.995 20.8984C569.623 20.4024 569.437 19.8031 569.437 19.1004C569.437 16.5377 570.388 14.5537 572.289 13.1484C574.232 11.6604 576.34 10.9164 578.613 10.9164C584.524 10.9164 587.479 13.9337 587.479 19.9684C587.479 20.3404 587.438 22.6757 587.355 26.9744C587.314 29.1237 587.293 31.5417 587.293 34.2284C587.293 36.2537 587.397 37.6591 587.603 38.4444C587.851 39.2297 588.327 39.6224 589.029 39.6224C589.567 39.6224 590.021 39.2091 590.393 38.3824C590.807 37.5557 591.013 36.4191 591.013 34.9724H591.695C591.695 36.6671 591.385 38.0517 590.765 39.1264C590.187 40.2011 589.401 40.7384 588.409 40.7384C587.211 40.7384 586.384 40.1391 585.929 38.9404C585.516 37.7004 585.289 35.5924 585.247 32.6164C584.503 34.8071 583.201 36.7084 581.341 38.3204C579.481 39.9324 577.332 40.7384 574.893 40.7384C573.033 40.7384 571.566 40.1597 570.491 39.0024C569.417 37.8037 568.879 36.2537 568.879 34.3524C568.879 31.7071 570.181 29.3924 572.785 27.4084C575.472 25.3417 579.585 24.2877 585.123 24.2464C585.123 23.6264 585.123 22.9857 585.123 22.3244C585.165 21.6217 585.185 21.1051 585.185 20.7744C585.227 20.4024 585.247 20.1337 585.247 19.9684C585.123 14.5951 582.85 11.9084 578.427 11.9084C576.691 11.9084 575.079 12.4251 573.591 13.4584C572.145 14.4504 571.194 15.7524 570.739 17.3644C571.07 17.2404 571.38 17.1784 571.669 17.1784C572.537 17.1784 573.137 17.5504 573.467 18.2944C573.839 19.0384 573.839 19.7824 573.467 20.5264C573.137 21.2704 572.537 21.6424 571.669 21.6424ZM575.761 39.6224C577.869 39.6224 579.895 38.6717 581.837 36.7704C583.863 34.8691 584.917 32.3477 584.999 29.2064C584.999 28.9584 585.02 28.2971 585.061 27.2224C585.103 26.1477 585.123 25.4451 585.123 25.1144C579.667 25.1557 575.844 26.2717 573.653 28.4624C571.959 30.2811 571.111 32.1411 571.111 34.0424C571.111 35.7784 571.525 37.1424 572.351 38.1344C573.178 39.1264 574.315 39.6224 575.761 39.6224Z" fill="#222222"/>
<path d="M618.539 39.3124V40.1184H607.132V39.3124H610.045C610.707 39.3124 611.161 39.1677 611.409 38.8784C611.657 38.5477 611.781 38.0104 611.781 37.2664V13.9544C611.781 13.4171 611.699 13.0451 611.534 12.8384C611.41 12.6317 611.1 12.5284 610.604 12.5284H603.969C602.812 12.5284 602.234 13.2104 602.234 14.5744C602.234 23.8331 601.861 30.3637 601.117 34.1664C600.208 38.6304 598.493 40.8624 595.971 40.8624C594.938 40.8624 594.132 40.5111 593.554 39.8084C592.975 39.1057 592.685 38.1757 592.685 37.0184C592.685 36.1091 593.078 35.4684 593.864 35.0964C594.649 34.6831 595.31 34.8277 595.847 35.5304C596.426 36.1917 596.55 36.9564 596.219 37.8244C595.93 38.6924 595.372 39.1264 594.545 39.1264H594.174C594.546 39.7051 595.166 39.9944 596.034 39.9944C597.935 39.9944 599.299 38.1344 600.125 34.4144C600.952 30.6117 601.365 23.9984 601.365 14.5744C601.365 13.7891 601.242 13.2517 600.994 12.9624C600.787 12.6731 600.332 12.5284 599.63 12.5284H596.716V11.7224H618.539V12.5284H615.625C615.005 12.5284 614.571 12.6937 614.323 13.0244C614.075 13.3137 613.951 13.8304 613.951 14.5744V37.2664C613.951 38.0104 614.075 38.5477 614.323 38.8784C614.571 39.1677 615.005 39.3124 615.625 39.3124H618.539Z" fill="#222222"/>
<path d="M633.182 25.1764H627.54V37.2664C627.54 38.0104 627.664 38.5477 627.912 38.8784C628.16 39.1677 628.594 39.3124 629.214 39.3124H633.306C635.331 39.3124 636.964 38.7131 638.204 37.5144C639.485 36.2744 640.126 34.5177 640.126 32.2444C640.126 29.9711 639.485 28.2351 638.204 27.0364C636.923 25.7964 635.249 25.1764 633.182 25.1764ZM633.802 40.1184H620.72V39.3124H623.696C624.316 39.3124 624.75 39.1677 624.998 38.8784C625.246 38.5477 625.37 38.0104 625.37 37.2664V14.5744C625.37 13.8304 625.246 13.3137 624.998 13.0244C624.75 12.6937 624.316 12.5284 623.696 12.5284H620.72V11.7224H632.19V12.5284H629.214C628.594 12.5284 628.16 12.6937 627.912 13.0244C627.664 13.3137 627.54 13.8304 627.54 14.5744V24.4324H633.802C636.365 24.4324 638.431 25.1351 640.002 26.5404C641.573 27.9044 642.358 29.8057 642.358 32.2444C642.358 34.6831 641.552 36.6051 639.94 38.0104C638.37 39.4157 636.323 40.1184 633.802 40.1184Z" fill="#222222"/>
<path d="M672.225 39.3124V40.1184H660.817V39.3124H663.731C664.351 39.3124 664.785 39.1677 665.033 38.8784C665.281 38.5477 665.405 38.0104 665.405 37.2664V25.5484H651.021V37.2664C651.021 38.0104 651.145 38.5477 651.393 38.8784C651.641 39.1677 652.075 39.3124 652.695 39.3124H655.609V40.1184H644.201V39.3124H647.177C647.797 39.3124 648.231 39.1677 648.479 38.8784C648.727 38.5477 648.851 38.0104 648.851 37.2664V14.5744C648.851 13.8304 648.727 13.3137 648.479 13.0244C648.231 12.6937 647.797 12.5284 647.177 12.5284H644.201V11.7224H655.609V12.5284H652.695C652.075 12.5284 651.641 12.6937 651.393 13.0244C651.145 13.3137 651.021 13.8304 651.021 14.5744V24.4944H665.405V14.5744C665.405 13.8304 665.281 13.3137 665.033 13.0244C664.785 12.6937 664.351 12.5284 663.731 12.5284H660.817V11.7224H672.225V12.5284H669.311C668.649 12.5284 668.195 12.6937 667.947 13.0244C667.699 13.3137 667.575 13.8304 667.575 14.5744V37.2664C667.575 38.0104 667.699 38.5477 667.947 38.8784C668.195 39.1677 668.649 39.3124 669.311 39.3124H672.225Z" fill="#222222"/>
<path d="M686.803 25.1764H681.161V37.2664C681.161 38.0104 681.285 38.5477 681.533 38.8784C681.781 39.1677 682.215 39.3124 682.835 39.3124H686.927C688.953 39.3124 690.585 38.7131 691.825 37.5144C693.107 36.2744 693.747 34.5177 693.747 32.2444C693.747 29.9711 693.107 28.2351 691.825 27.0364C690.544 25.7964 688.87 25.1764 686.803 25.1764ZM687.299 40.1184H674.341V39.3124H677.317C677.937 39.3124 678.371 39.1677 678.619 38.8784C678.867 38.5477 678.991 38.0104 678.991 37.2664V14.5744C678.991 13.8304 678.867 13.3137 678.619 13.0244C678.371 12.6937 677.937 12.5284 677.317 12.5284H674.341V11.7224H685.873V12.5284H683.021C681.781 12.5284 681.161 13.2104 681.161 14.5744V24.4324H687.299C689.862 24.4324 691.929 25.1351 693.499 26.5404C695.111 27.9044 695.917 29.8057 695.917 32.2444C695.917 34.6831 695.111 36.6051 693.499 38.0104C691.929 39.4157 689.862 40.1184 687.299 40.1184ZM707.883 39.3124V40.1184H696.475V39.3124H699.389C700.009 39.3124 700.443 39.1677 700.691 38.8784C700.939 38.5477 701.063 38.0104 701.063 37.2664V14.5744C701.063 13.8304 700.939 13.3137 700.691 13.0244C700.443 12.6937 700.009 12.5284 699.389 12.5284H696.475V11.7224H707.883V12.5284H704.969C704.308 12.5284 703.853 12.6937 703.605 13.0244C703.357 13.3137 703.233 13.8304 703.233 14.5744V37.2664C703.233 38.0104 703.357 38.5477 703.605 38.8784C703.853 39.1677 704.308 39.3124 704.969 39.3124H707.883Z" fill="#222222"/>
<path d="M738.884 39.3124V40.1184H727.6V39.3124H730.39C731.051 39.3124 731.506 39.1677 731.754 38.8784C732.002 38.5477 732.126 38.0104 732.126 37.2664V15.8764L716.812 37.3904C716.812 38.0931 716.915 38.5891 717.122 38.8784C717.37 39.1677 717.825 39.3124 718.486 39.3124H721.338V40.1184H709.992V39.3124H712.968C713.588 39.3124 714.022 39.1677 714.27 38.8784C714.518 38.5477 714.642 38.0104 714.642 37.2664V14.5744C714.642 13.8304 714.518 13.3137 714.27 13.0244C714.022 12.6937 713.588 12.5284 712.968 12.5284H709.992V11.7224H721.338V12.5284H718.486C717.866 12.5284 717.432 12.6937 717.184 13.0244C716.936 13.3137 716.812 13.8304 716.812 14.5744V35.9644L732.126 14.4504C732.126 13.7477 732.002 13.2517 731.754 12.9624C731.506 12.6731 731.051 12.5284 730.39 12.5284H727.6V11.7224H738.884V12.5284H735.97C735.309 12.5284 734.854 12.6731 734.606 12.9624C734.399 13.2517 734.296 13.7891 734.296 14.5744V37.2664C734.296 38.0517 734.399 38.5891 734.606 38.8784C734.854 39.1677 735.309 39.3124 735.97 39.3124H738.884ZM724.438 6.7624C727.414 6.7624 729.212 5.72907 729.832 3.66241C729.749 3.70374 729.584 3.72441 729.336 3.72441C728.633 3.72441 728.137 3.43507 727.848 2.85641C727.6 2.23641 727.6 1.6164 727.848 0.996405C728.137 0.376406 728.613 0.0664062 729.274 0.0664062C729.729 0.0664062 730.121 0.273073 730.452 0.686406C730.824 1.09974 731.01 1.57507 731.01 2.11241C730.969 4.09641 730.287 5.52241 728.964 6.39041C727.683 7.21707 726.174 7.60974 724.438 7.56841C722.537 7.56841 720.966 7.13441 719.726 6.26641C718.486 5.35707 717.866 3.97241 717.866 2.11241C717.866 1.57507 718.031 1.09974 718.362 0.686406C718.693 0.273073 719.106 0.0664062 719.602 0.0664062C720.263 0.0664062 720.718 0.376406 720.966 0.996405C721.255 1.6164 721.255 2.23641 720.966 2.85641C720.718 3.43507 720.243 3.72441 719.54 3.72441C719.251 3.72441 719.085 3.70374 719.044 3.66241C719.623 5.72907 721.421 6.7624 724.438 6.7624Z" fill="#222222"/>
<path d="M769.788 20.5884C769.374 20.1337 769.168 19.5964 769.168 18.9764C769.168 18.3564 769.374 17.8191 769.788 17.3644C770.201 16.9097 770.718 16.6824 771.338 16.6824C771.792 16.6824 772.164 16.8064 772.454 17.0544C772.206 15.4837 771.503 14.2231 770.346 13.2724C769.188 12.3217 767.762 11.8464 766.068 11.8464C763.464 11.8464 761.335 13.1691 759.682 15.8144C758.028 18.4597 757.202 21.8284 757.202 25.9204C757.202 30.0537 757.987 33.4017 759.558 35.9644C761.128 38.5271 763.216 39.8084 765.82 39.8084C767.597 39.8084 769.168 39.1057 770.532 37.7004C771.896 36.2951 772.867 34.3524 773.446 31.8724L774.128 32.0584C773.549 34.4971 772.495 36.5844 770.966 38.3204C769.478 40.0564 767.68 40.9244 765.572 40.9244C762.182 40.9244 759.558 39.4571 757.698 36.5224C755.879 33.5051 754.97 30.0124 754.97 26.0444C754.97 23.6471 755.342 21.3324 756.086 19.1004C756.912 16.7444 758.194 14.8017 759.93 13.2724C761.707 11.7017 763.732 10.9164 766.006 10.9164C768.196 10.9164 769.994 11.5777 771.4 12.9004C772.846 14.1817 773.57 15.9797 773.57 18.2944C773.57 19.0797 773.363 19.7617 772.95 20.3404C772.536 20.9191 771.999 21.2084 771.338 21.2084C770.718 21.2084 770.201 21.0017 769.788 20.5884Z" fill="#222222"/>
<path d="M780.403 21.6424C779.7 21.6424 779.142 21.3944 778.729 20.8984C778.357 20.4024 778.171 19.8031 778.171 19.1004C778.171 16.5377 779.121 14.5537 781.023 13.1484C782.965 11.6604 785.073 10.9164 787.347 10.9164C793.257 10.9164 796.213 13.9337 796.213 19.9684C796.213 20.3404 796.171 22.6757 796.089 26.9744C796.047 29.1237 796.027 31.5417 796.027 34.2284C796.027 36.2537 796.13 37.6591 796.337 38.4444C796.585 39.2297 797.06 39.6224 797.763 39.6224C798.3 39.6224 798.755 39.2091 799.127 38.3824C799.54 37.5557 799.747 36.4191 799.747 34.9724H800.429C800.429 36.6671 800.119 38.0517 799.499 39.1264C798.92 40.2011 798.135 40.7384 797.143 40.7384C795.944 40.7384 795.117 40.1391 794.663 38.9404C794.249 37.7004 794.022 35.5924 793.981 32.6164C793.237 34.8071 791.935 36.7084 790.075 38.3204C788.215 39.9324 786.065 40.7384 783.627 40.7384C781.767 40.7384 780.299 40.1597 779.225 39.0024C778.15 37.8037 777.613 36.2537 777.613 34.3524C777.613 31.7071 778.915 29.3924 781.519 27.4084C784.205 25.3417 788.318 24.2877 793.857 24.2464C793.857 23.6264 793.857 22.9857 793.857 22.3244C793.898 21.6217 793.919 21.1051 793.919 20.7744C793.96 20.4024 793.981 20.1337 793.981 19.9684C793.857 14.5951 791.583 11.9084 787.161 11.9084C785.425 11.9084 783.813 12.4251 782.325 13.4584C780.878 14.4504 779.927 15.7524 779.473 17.3644C779.803 17.2404 780.113 17.1784 780.403 17.1784C781.271 17.1784 781.87 17.5504 782.201 18.2944C782.573 19.0384 782.573 19.7824 782.201 20.5264C781.87 21.2704 781.271 21.6424 780.403 21.6424ZM784.495 39.6224C786.603 39.6224 788.628 38.6717 790.571 36.7704C792.596 34.8691 793.65 32.3477 793.733 29.2064C793.733 28.9584 793.753 28.2971 793.795 27.2224C793.836 26.1477 793.857 25.4451 793.857 25.1144C788.401 25.1557 784.577 26.2717 782.387 28.4624C780.692 30.2811 779.845 32.1411 779.845 34.0424C779.845 35.7784 780.258 37.1424 781.085 38.1344C781.911 39.1264 783.048 39.6224 784.495 39.6224Z" fill="#222222"/>
<path d="M826.839 39.3124L827.335 48.5504H826.591C826.343 46.6904 826.136 45.3057 825.971 44.3964C825.847 43.4871 825.702 42.6811 825.537 41.9784C825.413 41.3171 825.185 40.8831 824.855 40.6764C824.524 40.5111 824.235 40.3871 823.987 40.3044C823.78 40.2217 823.346 40.1597 822.685 40.1184H806.255C805.593 40.1597 805.139 40.2217 804.891 40.3044C804.684 40.3871 804.415 40.5111 804.085 40.6764C803.754 40.8831 803.506 41.3377 803.341 42.0404C803.217 42.7431 803.072 43.5284 802.907 44.3964C802.741 45.3057 802.535 46.6904 802.287 48.5504H801.543L802.101 39.3124H804.147C807.825 37.9897 809.665 29.7437 809.665 14.5744C809.665 13.8304 809.541 13.3137 809.293 13.0244C809.045 12.6937 808.569 12.5284 807.867 12.5284H805.015V11.7224H827.149V12.5284H824.173C823.553 12.5284 823.119 12.6937 822.871 13.0244C822.623 13.3137 822.499 13.8304 822.499 14.5744V37.2664C822.499 38.0104 822.623 38.5477 822.871 38.8784C823.119 39.1677 823.553 39.3124 824.173 39.3124H826.839ZM820.329 37.7004V13.9544C820.329 13.4171 820.246 13.0451 820.081 12.8384C819.957 12.6317 819.647 12.5284 819.151 12.5284H812.207C811.049 12.5284 810.471 13.2104 810.471 14.5744C810.471 22.7584 809.913 29.0824 808.797 33.5464C808.011 36.6051 806.895 38.5271 805.449 39.3124H819.089C819.585 39.3124 819.915 39.2091 820.081 39.0024C820.246 38.7544 820.329 38.3204 820.329 37.7004Z" fill="#222222"/>
<path d="M462.18 89.3124V90.1184H450.896V89.3124H453.686C454.347 89.3124 454.802 89.1677 455.05 88.8784C455.298 88.5477 455.422 88.0104 455.422 87.2664V65.8764L440.108 87.3904C440.108 88.0931 440.211 88.5891 440.418 88.8784C440.666 89.1677 441.121 89.3124 441.782 89.3124H444.634V90.1184H433.288V89.3124H436.264C436.884 89.3124 437.318 89.1677 437.566 88.8784C437.814 88.5477 437.938 88.0104 437.938 87.2664V64.5744C437.938 63.8304 437.814 63.3137 437.566 63.0244C437.318 62.6937 436.884 62.5284 436.264 62.5284H433.288V61.7224H444.634V62.5284H441.782C441.162 62.5284 440.728 62.6937 440.48 63.0244C440.232 63.3137 440.108 63.8304 440.108 64.5744V85.9644L455.422 64.4504C455.422 63.7477 455.298 63.2517 455.05 62.9624C454.802 62.6731 454.347 62.5284 453.686 62.5284H450.896V61.7224H462.18V62.5284H459.266C458.605 62.5284 458.15 62.6731 457.902 62.9624C457.695 63.2517 457.592 63.7891 457.592 64.5744V87.2664C457.592 88.0517 457.695 88.5891 457.902 88.8784C458.15 89.1677 458.605 89.3124 459.266 89.3124H462.18Z" fill="#222222"/>
<path d="M502.507 89.3124L503.003 98.5504H502.259C502.011 96.6904 501.805 95.3057 501.639 94.3964C501.515 93.4871 501.371 92.6811 501.205 91.9784C501.081 91.3171 500.854 90.8831 500.523 90.6764C500.193 90.5111 499.903 90.3871 499.655 90.3044C499.449 90.2217 499.015 90.1597 498.353 90.1184H481.923C481.262 90.1597 480.807 90.2217 480.559 90.3044C480.353 90.3871 480.084 90.5111 479.753 90.6764C479.423 90.8831 479.175 91.3377 479.009 92.0404C478.885 92.7431 478.741 93.5284 478.575 94.3964C478.41 95.3057 478.203 96.6904 477.955 98.5504H477.211L477.769 89.3124H479.815C483.494 87.9897 485.333 79.7437 485.333 64.5744C485.333 63.8304 485.209 63.3137 484.961 63.0244C484.713 62.6937 484.238 62.5284 483.535 62.5284H480.683V61.7224H502.817V62.5284H499.841C499.221 62.5284 498.787 62.6937 498.539 63.0244C498.291 63.3137 498.167 63.8304 498.167 64.5744V87.2664C498.167 88.0104 498.291 88.5477 498.539 88.8784C498.787 89.1677 499.221 89.3124 499.841 89.3124H502.507ZM495.997 87.7004V63.9544C495.997 63.4171 495.915 63.0451 495.749 62.8384C495.625 62.6317 495.315 62.5284 494.819 62.5284H487.875C486.718 62.5284 486.139 63.2104 486.139 64.5744C486.139 72.7584 485.581 79.0824 484.465 83.5464C483.68 86.6051 482.564 88.5271 481.117 89.3124H494.757C495.253 89.3124 495.584 89.2091 495.749 89.0024C495.915 88.7544 495.997 88.3204 495.997 87.7004Z" fill="#222222"/>
<path d="M533.025 89.3124V90.1184H521.617V89.3124H524.531C525.151 89.3124 525.585 89.1677 525.833 88.8784C526.081 88.5477 526.205 88.0104 526.205 87.2664V75.5484H511.821V87.2664C511.821 88.0104 511.945 88.5477 512.193 88.8784C512.441 89.1677 512.875 89.3124 513.495 89.3124H516.409V90.1184H505.001V89.3124H507.977C508.597 89.3124 509.031 89.1677 509.279 88.8784C509.527 88.5477 509.651 88.0104 509.651 87.2664V64.5744C509.651 63.8304 509.527 63.3137 509.279 63.0244C509.031 62.6937 508.597 62.5284 507.977 62.5284H505.001V61.7224H516.409V62.5284H513.495C512.875 62.5284 512.441 62.6937 512.193 63.0244C511.945 63.3137 511.821 63.8304 511.821 64.5744V74.4944H526.205V64.5744C526.205 63.8304 526.081 63.3137 525.833 63.0244C525.585 62.6937 525.151 62.5284 524.531 62.5284H521.617V61.7224H533.025V62.5284H530.111C529.45 62.5284 528.995 62.6937 528.747 63.0244C528.499 63.3137 528.375 63.8304 528.375 64.5744V87.2664C528.375 88.0104 528.499 88.5477 528.747 88.8784C528.995 89.1677 529.45 89.3124 530.111 89.3124H533.025Z" fill="#222222"/>
<path d="M555.664 75.3624H537.994V76.1684C537.994 80.3017 538.758 83.6291 540.288 86.1504C541.858 88.6304 543.966 89.8704 546.612 89.8704C548.472 89.8704 550.146 89.1471 551.634 87.7004C553.122 86.2124 554.176 84.2284 554.796 81.7484L555.416 81.9964C554.878 84.3524 553.762 86.4397 552.068 88.2584C550.414 90.0357 548.492 90.9244 546.302 90.9244C542.83 90.9244 540.205 89.4157 538.428 86.3984C536.65 83.3811 535.762 79.8884 535.762 75.9204C535.762 73.6057 536.113 71.3324 536.816 69.1004C537.56 66.9097 538.779 65.0084 540.474 63.3964C542.168 61.7431 544.214 60.9164 546.612 60.9164C549.546 60.9164 551.778 62.3011 553.308 65.0704C554.878 67.8397 555.664 71.2704 555.664 75.3624ZM546.55 61.7224C544.111 61.7224 542.127 62.9211 540.598 65.3184C539.11 67.5917 538.262 70.6297 538.056 74.4324H551.944C552.812 74.4324 553.246 73.9364 553.246 72.9444C553.246 69.9271 552.626 67.3024 551.386 65.0704C550.187 62.8384 548.575 61.7224 546.55 61.7224Z" fill="#222222"/>
<path d="M578.467 82.5544C578.467 80.4051 577.743 78.6691 576.297 77.3464C574.891 76.0651 573.279 75.4244 571.461 75.4244H565.261V87.3284C565.261 88.0724 565.385 88.6097 565.633 88.9404C565.881 89.2297 566.315 89.3744 566.935 89.3744H571.523C573.589 89.3744 575.263 88.7957 576.545 87.6384C577.826 86.4397 578.467 84.7451 578.467 82.5544ZM571.461 62.4664H566.873C566.253 62.4664 565.819 62.6317 565.571 62.9624C565.364 63.2517 565.261 63.7684 565.261 64.5124V74.6184H571.523C573.176 74.6184 574.519 74.0191 575.553 72.8204C576.586 71.6217 577.103 70.1957 577.103 68.5424C577.103 66.8891 576.565 65.4631 575.491 64.2644C574.457 63.0657 573.114 62.4664 571.461 62.4664ZM580.637 82.6164C580.637 85.0137 579.851 86.8737 578.281 88.1964C576.71 89.4777 574.623 90.1184 572.019 90.1184H558.441V89.3124H561.417C562.037 89.3124 562.471 89.1677 562.719 88.8784C562.967 88.5477 563.091 88.0104 563.091 87.2664V64.5744C563.091 63.8304 562.967 63.3137 562.719 63.0244C562.471 62.6937 562.037 62.5284 561.417 62.5284H558.441V61.7224H572.019C574.168 61.7224 575.904 62.3631 577.227 63.6444C578.549 64.8844 579.211 66.4757 579.211 68.4184C579.211 69.9891 578.715 71.3944 577.723 72.6344C576.731 73.8744 575.387 74.6804 573.693 75.0524C575.883 75.3831 577.578 76.2511 578.777 77.6564C580.017 79.0204 580.637 80.6737 580.637 82.6164Z" fill="#222222"/>
<path d="M611.338 89.3124V90.1184H599.93V89.3124H602.844C603.464 89.3124 603.898 89.1677 604.146 88.8784C604.394 88.5477 604.518 88.0104 604.518 87.2664V75.5484H590.134V87.2664C590.134 88.0104 590.258 88.5477 590.506 88.8784C590.754 89.1677 591.188 89.3124 591.808 89.3124H594.722V90.1184H583.314V89.3124H586.29C586.91 89.3124 587.344 89.1677 587.592 88.8784C587.84 88.5477 587.964 88.0104 587.964 87.2664V64.5744C587.964 63.8304 587.84 63.3137 587.592 63.0244C587.344 62.6937 586.91 62.5284 586.29 62.5284H583.314V61.7224H594.722V62.5284H591.808C591.188 62.5284 590.754 62.6937 590.506 63.0244C590.258 63.3137 590.134 63.8304 590.134 64.5744V74.4944H604.518V64.5744C604.518 63.8304 604.394 63.3137 604.146 63.0244C603.898 62.6937 603.464 62.5284 602.844 62.5284H599.93V61.7224H611.338V62.5284H608.424C607.762 62.5284 607.308 62.6937 607.06 63.0244C606.812 63.3137 606.688 63.8304 606.688 64.5744V87.2664C606.688 88.0104 606.812 88.5477 607.06 88.8784C607.308 89.1677 607.762 89.3124 608.424 89.3124H611.338Z" fill="#222222"/>
<path d="M642.347 89.3124V90.1184H631.062V89.3124H633.853C634.514 89.3124 634.969 89.1677 635.217 88.8784C635.465 88.5477 635.589 88.0104 635.589 87.2664V65.8764L620.275 87.3904C620.275 88.0931 620.378 88.5891 620.585 88.8784C620.833 89.1677 621.287 89.3124 621.949 89.3124H624.801V90.1184H613.455V89.3124H616.431C617.051 89.3124 617.485 89.1677 617.733 88.8784C617.981 88.5477 618.105 88.0104 618.105 87.2664V64.5744C618.105 63.8304 617.981 63.3137 617.733 63.0244C617.485 62.6937 617.051 62.5284 616.431 62.5284H613.455V61.7224H624.801V62.5284H621.949C621.329 62.5284 620.895 62.6937 620.647 63.0244C620.399 63.3137 620.275 63.8304 620.275 64.5744V85.9644L635.589 64.4504C635.589 63.7477 635.465 63.2517 635.217 62.9624C634.969 62.6731 634.514 62.5284 633.853 62.5284H631.062V61.7224H642.347V62.5284H639.433C638.771 62.5284 638.317 62.6731 638.069 62.9624C637.862 63.2517 637.759 63.7891 637.759 64.5744V87.2664C637.759 88.0517 637.862 88.5891 638.069 88.8784C638.317 89.1677 638.771 89.3124 639.433 89.3124H642.347Z" fill="#222222"/>
<path d="M665.521 90.9244C664.529 90.9244 663.703 90.4077 663.041 89.3744C662.38 88.3411 661.843 87.1011 661.429 85.6544C661.016 84.2077 660.582 82.7611 660.127 81.3144C659.673 79.8264 658.97 78.5657 658.019 77.5324C657.069 76.4991 655.891 75.9824 654.485 75.9824H651.323V87.2664C651.323 88.0104 651.447 88.5477 651.695 88.8784C651.943 89.1677 652.377 89.3124 652.997 89.3124H655.973V90.1184H644.503V89.3124H647.479C648.099 89.3124 648.533 89.1677 648.781 88.8784C649.029 88.5477 649.153 88.0104 649.153 87.2664V64.5744C649.153 63.8304 649.029 63.3137 648.781 63.0244C648.533 62.6937 648.099 62.5284 647.479 62.5284H644.503V61.7224H655.973V62.5284H652.997C652.377 62.5284 651.943 62.6937 651.695 63.0244C651.447 63.3137 651.323 63.8304 651.323 64.5744V75.1144H655.415L662.545 64.6364C663 64.0577 663.227 63.5824 663.227 63.2104C663.227 62.7557 662.835 62.5284 662.049 62.5284H659.197V61.7224H668.683V62.5284H667.443C665.873 62.5284 664.591 63.2311 663.599 64.6364L656.283 75.2384C657.937 75.4037 659.342 76.2924 660.499 77.9044C661.615 79.3924 662.401 81.0664 662.855 82.9264C663.93 87.5144 664.984 89.8084 666.017 89.8084C667.34 89.8084 668.001 88.1964 668.001 84.9724H668.745C668.745 88.9404 667.671 90.9244 665.521 90.9244Z" fill="#222222"/>
<path d="M1119.24 39.1952L1119.74 48.4332H1118.99C1118.75 46.5732 1118.54 45.1886 1118.37 44.2792C1118.25 43.3699 1118.1 42.5639 1117.94 41.8612C1117.81 41.1999 1117.59 40.7659 1117.26 40.5592C1116.93 40.3939 1116.64 40.2699 1116.39 40.1872C1116.18 40.1046 1115.75 40.0426 1115.09 40.0012H1098.66C1098 40.0426 1097.54 40.1046 1097.29 40.1872C1097.09 40.2699 1096.82 40.3939 1096.49 40.5592C1096.16 40.7659 1095.91 41.2206 1095.74 41.9232C1095.62 42.6259 1095.47 43.4112 1095.31 44.2792C1095.14 45.1886 1094.94 46.5732 1094.69 48.4332H1093.94L1094.5 39.1952H1096.55C1100.23 37.8726 1102.07 29.6266 1102.07 14.4572C1102.07 13.7132 1101.94 13.1966 1101.69 12.9072C1101.45 12.5766 1100.97 12.4112 1100.27 12.4112H1097.42V11.6052H1119.55V12.4112H1116.57C1115.95 12.4112 1115.52 12.5766 1115.27 12.9072C1115.02 13.1966 1114.9 13.7132 1114.9 14.4572V37.1492C1114.9 37.8932 1115.02 38.4306 1115.27 38.7612C1115.52 39.0506 1115.95 39.1952 1116.57 39.1952H1119.24ZM1112.73 37.5832V13.8372C1112.73 13.2999 1112.65 12.9279 1112.48 12.7212C1112.36 12.5146 1112.05 12.4112 1111.55 12.4112H1104.61C1103.45 12.4112 1102.87 13.0932 1102.87 14.4572C1102.87 22.6412 1102.31 28.9652 1101.2 33.4292C1100.41 36.4879 1099.3 38.4099 1097.85 39.1952H1111.49C1111.99 39.1952 1112.32 39.0919 1112.48 38.8852C1112.65 38.6372 1112.73 38.2032 1112.73 37.5832Z" fill="#222222"/>
<path d="M1139.09 36.0332C1140.62 33.3879 1141.39 29.9779 1141.39 25.8032C1141.39 21.6286 1140.62 18.2186 1139.09 15.5732C1137.61 12.9279 1135.58 11.6052 1133.02 11.6052C1130.5 11.6052 1128.45 12.9486 1126.88 15.6352C1125.35 18.2806 1124.59 21.6699 1124.59 25.8032C1124.59 29.9779 1125.35 33.3879 1126.88 36.0332C1128.41 38.6786 1130.46 40.0012 1133.02 40.0012C1135.58 40.0012 1137.61 38.6786 1139.09 36.0332ZM1140.77 36.5292C1138.87 39.3812 1136.28 40.8072 1133.02 40.8072C1129.75 40.8072 1127.17 39.3606 1125.27 36.4672C1123.33 33.5326 1122.35 29.9779 1122.35 25.8032C1122.35 21.6286 1123.33 18.0739 1125.27 15.1392C1127.17 12.2459 1129.75 10.7992 1133.02 10.7992C1136.28 10.7992 1138.87 12.2459 1140.77 15.1392C1142.71 18.0326 1143.68 21.5872 1143.68 25.8032C1143.68 30.0192 1142.71 33.5946 1140.77 36.5292Z" fill="#222222"/>
<path d="M1178.6 39.1952V40.0012H1167.13V39.1952H1170.11C1170.77 39.1952 1171.23 39.0506 1171.47 38.7612C1171.72 38.4306 1171.85 37.8932 1171.85 37.1492V12.5352H1171.6L1161.86 40.7452H1161.24L1152.25 12.5352H1151.82V37.1492C1151.82 37.8932 1151.94 38.4306 1152.19 38.7612C1152.44 39.0506 1152.89 39.1952 1153.56 39.1952H1156.53V40.0012H1146.43V39.1952H1149.4C1150.02 39.1952 1150.46 39.0506 1150.7 38.7612C1150.95 38.4306 1151.08 37.8932 1151.08 37.1492V14.4572C1151.08 13.7132 1150.95 13.1966 1150.7 12.9072C1150.46 12.5766 1150.02 12.4112 1149.4 12.4112H1146.43V11.6052H1154.24L1162.36 37.4592L1171.1 11.6052H1178.6V12.4112H1175.69C1175.07 12.4112 1174.64 12.5766 1174.39 12.9072C1174.14 13.1966 1174.02 13.7132 1174.02 14.4572V37.1492C1174.02 37.8932 1174.14 38.4306 1174.39 38.7612C1174.64 39.0506 1175.07 39.1952 1175.69 39.1952H1178.6Z" fill="#222222"/>
<path d="M1184.59 21.5252C1183.89 21.5252 1183.33 21.2772 1182.91 20.7812C1182.54 20.2852 1182.36 19.6859 1182.36 18.9832C1182.36 16.4206 1183.31 14.4366 1185.21 13.0312C1187.15 11.5432 1189.26 10.7992 1191.53 10.7992C1197.44 10.7992 1200.4 13.8166 1200.4 19.8512C1200.4 20.2232 1200.36 22.5586 1200.27 26.8572C1200.23 29.0066 1200.21 31.4246 1200.21 34.1112C1200.21 36.1366 1200.32 37.5419 1200.52 38.3272C1200.77 39.1126 1201.25 39.5052 1201.95 39.5052C1202.49 39.5052 1202.94 39.0919 1203.31 38.2652C1203.73 37.4386 1203.93 36.3019 1203.93 34.8552H1204.61C1204.61 36.5499 1204.3 37.9346 1203.68 39.0092C1203.11 40.0839 1202.32 40.6212 1201.33 40.6212C1200.13 40.6212 1199.3 40.0219 1198.85 38.8232C1198.44 37.5832 1198.21 35.4752 1198.17 32.4992C1197.42 34.6899 1196.12 36.5912 1194.26 38.2032C1192.4 39.8152 1190.25 40.6212 1187.81 40.6212C1185.95 40.6212 1184.49 40.0426 1183.41 38.8852C1182.34 37.6866 1181.8 36.1366 1181.8 34.2352C1181.8 31.5899 1183.1 29.2752 1185.7 27.2912C1188.39 25.2246 1192.5 24.1706 1198.04 24.1292C1198.04 23.5092 1198.04 22.8686 1198.04 22.2072C1198.08 21.5046 1198.1 20.9879 1198.1 20.6572C1198.15 20.2852 1198.17 20.0166 1198.17 19.8512C1198.04 14.4779 1195.77 11.7912 1191.35 11.7912C1189.61 11.7912 1188 12.3079 1186.51 13.3412C1185.06 14.3332 1184.11 15.6352 1183.66 17.2472C1183.99 17.1232 1184.3 17.0612 1184.59 17.0612C1185.46 17.0612 1186.06 17.4332 1186.39 18.1772C1186.76 18.9212 1186.76 19.6652 1186.39 20.4092C1186.06 21.1532 1185.46 21.5252 1184.59 21.5252ZM1188.68 39.5052C1190.79 39.5052 1192.81 38.5546 1194.76 36.6532C1196.78 34.7519 1197.84 32.2306 1197.92 29.0892C1197.92 28.8412 1197.94 28.1799 1197.98 27.1052C1198.02 26.0306 1198.04 25.3279 1198.04 24.9972C1192.59 25.0386 1188.76 26.1546 1186.57 28.3452C1184.88 30.1639 1184.03 32.0239 1184.03 33.9252C1184.03 35.6612 1184.44 37.0252 1185.27 38.0172C1186.1 39.0092 1187.23 39.5052 1188.68 39.5052Z" fill="#222222"/>
<path d="M1225.38 38.7612V14.4572C1225.38 13.7132 1225.26 13.1966 1225.01 12.9072C1224.76 12.5766 1224.33 12.4112 1223.71 12.4112H1221.35V11.6052H1232.02V12.4112H1229.23C1228.61 12.4112 1228.17 12.5766 1227.92 12.9072C1227.68 13.1966 1227.55 13.7132 1227.55 14.4572V38.7612C1227.55 39.0506 1227.72 39.1952 1228.05 39.1952H1239.46C1239.79 39.1952 1239.95 39.0506 1239.95 38.7612V14.4572C1239.95 13.7132 1239.83 13.1966 1239.58 12.9072C1239.33 12.5766 1238.9 12.4112 1238.28 12.4112H1235.49V11.6052H1246.77V12.4112H1243.8C1243.18 12.4112 1242.74 12.5766 1242.49 12.9072C1242.25 13.1966 1242.12 13.7132 1242.12 14.4572V37.1492C1242.12 37.8932 1242.25 38.4306 1242.49 38.7612C1242.74 39.0506 1243.18 39.1952 1243.8 39.1952H1246.77V40.0012H1206.16V39.1952H1209.14C1209.76 39.1952 1210.19 39.0506 1210.44 38.7612C1210.69 38.4306 1210.81 37.8932 1210.81 37.1492V14.4572C1210.81 13.7132 1210.69 13.1966 1210.44 12.9072C1210.19 12.5766 1209.76 12.4112 1209.14 12.4112H1206.16V11.6052H1217.45V12.4112H1214.66C1214.04 12.4112 1213.6 12.5766 1213.35 12.9072C1213.11 13.1966 1212.98 13.7132 1212.98 14.4572V38.7612C1212.98 39.0506 1213.15 39.1952 1213.48 39.1952H1224.89C1225.22 39.1952 1225.38 39.0506 1225.38 38.7612Z" fill="#222222"/>
<path d="M1276.92 39.1952V40.0012H1265.51V39.1952H1268.43C1269.05 39.1952 1269.48 39.0506 1269.73 38.7612C1269.98 38.4306 1270.1 37.8932 1270.1 37.1492V25.4312H1255.72V37.1492C1255.72 37.8932 1255.84 38.4306 1256.09 38.7612C1256.34 39.0506 1256.77 39.1952 1257.39 39.1952H1260.31V40.0012H1248.9V39.1952H1251.87C1252.49 39.1952 1252.93 39.0506 1253.18 38.7612C1253.42 38.4306 1253.55 37.8932 1253.55 37.1492V14.4572C1253.55 13.7132 1253.42 13.1966 1253.18 12.9072C1252.93 12.5766 1252.49 12.4112 1251.87 12.4112H1248.9V11.6052H1260.31V12.4112H1257.39C1256.77 12.4112 1256.34 12.5766 1256.09 12.9072C1255.84 13.1966 1255.72 13.7132 1255.72 14.4572V24.3772H1270.1V14.4572C1270.1 13.7132 1269.98 13.1966 1269.73 12.9072C1269.48 12.5766 1269.05 12.4112 1268.43 12.4112H1265.51V11.6052H1276.92V12.4112H1274.01C1273.35 12.4112 1272.89 12.5766 1272.64 12.9072C1272.4 13.1966 1272.27 13.7132 1272.27 14.4572V37.1492C1272.27 37.8932 1272.4 38.4306 1272.64 38.7612C1272.89 39.0506 1273.35 39.1952 1274.01 39.1952H1276.92Z" fill="#222222"/>
<path d="M1307.93 39.1952V40.0012H1296.65V39.1952H1299.44C1300.1 39.1952 1300.55 39.0506 1300.8 38.7612C1301.05 38.4306 1301.17 37.8932 1301.17 37.1492V15.7592L1285.86 37.2732C1285.86 37.9759 1285.96 38.4719 1286.17 38.7612C1286.42 39.0506 1286.87 39.1952 1287.53 39.1952H1290.38V40.0012H1279.04V39.1952H1282.01C1282.63 39.1952 1283.07 39.0506 1283.32 38.7612C1283.56 38.4306 1283.69 37.8932 1283.69 37.1492V14.4572C1283.69 13.7132 1283.56 13.1966 1283.32 12.9072C1283.07 12.5766 1282.63 12.4112 1282.01 12.4112H1279.04V11.6052H1290.38V12.4112H1287.53C1286.91 12.4112 1286.48 12.5766 1286.23 12.9072C1285.98 13.1966 1285.86 13.7132 1285.86 14.4572V35.8472L1301.17 14.3332C1301.17 13.6306 1301.05 13.1346 1300.8 12.8452C1300.55 12.5559 1300.1 12.4112 1299.44 12.4112H1296.65V11.6052H1307.93V12.4112H1305.02C1304.35 12.4112 1303.9 12.5559 1303.65 12.8452C1303.45 13.1346 1303.34 13.6719 1303.34 14.4572V37.1492C1303.34 37.9346 1303.45 38.4719 1303.65 38.7612C1303.9 39.0506 1304.35 39.1952 1305.02 39.1952H1307.93Z" fill="#222222"/>
<path d="M1334.39 39.1952V40.0012H1324.47V39.1952H1327.2C1327.94 39.1952 1328.31 38.9886 1328.31 38.5752C1328.31 38.3272 1328.11 37.8519 1327.69 37.1492L1321.43 26.2992L1314.98 37.1492C1314.53 37.9759 1314.3 38.4719 1314.3 38.6372C1314.3 39.0092 1314.63 39.1952 1315.29 39.1952H1318.08V40.0012H1309.4V39.1952H1310.89C1312.09 39.1952 1313.12 38.5132 1313.99 37.1492L1320.94 25.5552L1314.43 14.4572C1313.64 13.0932 1312.67 12.4112 1311.51 12.4112H1310.02V11.6052H1319.94V12.4112H1317.15C1316.41 12.4112 1316.04 12.5972 1316.04 12.9692C1316.04 13.1346 1316.27 13.6306 1316.72 14.4572L1322.36 24.2532L1328.13 14.4572C1328.5 13.7959 1328.69 13.2999 1328.69 12.9692C1328.69 12.5972 1328.38 12.4112 1327.76 12.4112H1324.97V11.6052H1333.77V12.4112H1332.28C1331.04 12.4112 1329.99 13.0932 1329.12 14.4572L1322.8 24.9972L1329.99 37.1492C1330.82 38.5132 1331.81 39.1952 1332.96 39.1952H1334.39Z" fill="#222222"/>
<path d="M1136.03 90.8072C1134 90.8072 1132.24 90.0426 1130.76 88.5132C1129.27 86.9426 1128.21 84.8345 1127.59 82.1892V98.8052C1127.59 99.5492 1127.72 100.066 1127.97 100.355C1128.21 100.686 1128.67 100.851 1129.33 100.851H1132.37V101.657H1120.84V100.851H1123.75C1124.37 100.851 1124.8 100.686 1125.05 100.355C1125.3 100.066 1125.42 99.5492 1125.42 98.8052V64.5192C1125.42 63.6099 1125.3 63.0106 1125.05 62.7212C1124.8 62.4319 1124.25 62.2872 1123.38 62.2872H1120.84V61.4812L1127.53 60.9852V69.6032C1128.15 66.9579 1129.21 64.8292 1130.69 63.2172C1132.22 61.6052 1134 60.7992 1136.03 60.7992C1138.96 60.7992 1141.36 62.2666 1143.22 65.2012C1145.08 68.0946 1146.01 71.6286 1146.01 75.8032C1146.01 79.9779 1145.08 83.5119 1143.22 86.4052C1141.36 89.3399 1138.96 90.8072 1136.03 90.8072ZM1127.59 75.8032C1127.59 79.5232 1128.32 82.7886 1129.76 85.5992C1131.25 88.4099 1133.13 89.8152 1135.41 89.8152C1137.8 89.8152 1139.79 88.5132 1141.36 85.9092C1142.93 83.2226 1143.71 79.8539 1143.71 75.8032C1143.71 71.7526 1142.93 68.4046 1141.36 65.7592C1139.83 63.1139 1137.84 61.7912 1135.41 61.7912C1133.17 61.7912 1131.31 63.1759 1129.83 65.9452C1128.34 68.7559 1127.59 72.0419 1127.59 75.8032Z" fill="#222222"/>
<path d="M1152.58 71.5252C1151.88 71.5252 1151.32 71.2772 1150.91 70.7812C1150.54 70.2852 1150.35 69.6859 1150.35 68.9832C1150.35 66.4206 1151.3 64.4366 1153.2 63.0312C1155.15 61.5432 1157.25 60.7992 1159.53 60.7992C1165.44 60.7992 1168.39 63.8166 1168.39 69.8512C1168.39 70.2232 1168.35 72.5586 1168.27 76.8572C1168.23 79.0066 1168.21 81.4246 1168.21 84.1112C1168.21 86.1366 1168.31 87.5419 1168.52 88.3272C1168.76 89.1126 1169.24 89.5052 1169.94 89.5052C1170.48 89.5052 1170.93 89.0919 1171.31 88.2652C1171.72 87.4386 1171.93 86.3019 1171.93 84.8552H1172.61C1172.61 86.5499 1172.3 87.9346 1171.68 89.0092C1171.1 90.0839 1170.31 90.6212 1169.32 90.6212C1168.12 90.6212 1167.3 90.0219 1166.84 88.8232C1166.43 87.5832 1166.2 85.4752 1166.16 82.4992C1165.42 84.6899 1164.11 86.5912 1162.25 88.2032C1160.39 89.8152 1158.25 90.6212 1155.81 90.6212C1153.95 90.6212 1152.48 90.0426 1151.4 88.8852C1150.33 87.6866 1149.79 86.1366 1149.79 84.2352C1149.79 81.5899 1151.09 79.2752 1153.7 77.2912C1156.39 75.2246 1160.5 74.1706 1166.04 74.1292C1166.04 73.5092 1166.04 72.8686 1166.04 72.2072C1166.08 71.5046 1166.1 70.9879 1166.1 70.6572C1166.14 70.2852 1166.16 70.0166 1166.16 69.8512C1166.04 64.4779 1163.76 61.7912 1159.34 61.7912C1157.6 61.7912 1155.99 62.3079 1154.5 63.3412C1153.06 64.3332 1152.11 65.6352 1151.65 67.2472C1151.98 67.1232 1152.29 67.0612 1152.58 67.0612C1153.45 67.0612 1154.05 67.4332 1154.38 68.1772C1154.75 68.9212 1154.75 69.6652 1154.38 70.4092C1154.05 71.1532 1153.45 71.5252 1152.58 71.5252ZM1156.67 89.5052C1158.78 89.5052 1160.81 88.5546 1162.75 86.6532C1164.78 84.7519 1165.83 82.2306 1165.91 79.0892C1165.91 78.8412 1165.93 78.1799 1165.97 77.1052C1166.02 76.0306 1166.04 75.3279 1166.04 74.9972C1160.58 75.0386 1156.76 76.1546 1154.57 78.3452C1152.87 80.1639 1152.02 82.0239 1152.02 83.9252C1152.02 85.6612 1152.44 87.0252 1153.26 88.0172C1154.09 89.0092 1155.23 89.5052 1156.67 89.5052Z" fill="#222222"/>
<path d="M1189.59 70.4712C1189.18 70.0166 1188.97 69.4792 1188.97 68.8592C1188.97 68.2392 1189.18 67.7019 1189.59 67.2472C1190.01 66.7926 1190.52 66.5652 1191.14 66.5652C1191.6 66.5652 1191.97 66.6892 1192.26 66.9372C1192.01 65.3666 1191.31 64.1059 1190.15 63.1552C1189 62.2046 1187.57 61.7292 1185.87 61.7292C1183.27 61.7292 1181.14 63.0519 1179.49 65.6972C1177.84 68.3426 1177.01 71.7112 1177.01 75.8032C1177.01 79.9366 1177.79 83.2846 1179.36 85.8472C1180.94 88.4099 1183.02 89.6912 1185.63 89.6912C1187.4 89.6912 1188.97 88.9886 1190.34 87.5832C1191.7 86.1779 1192.67 84.2352 1193.25 81.7552L1193.93 81.9412C1193.36 84.3799 1192.3 86.4672 1190.77 88.2032C1189.28 89.9392 1187.49 90.8072 1185.38 90.8072C1181.99 90.8072 1179.36 89.3399 1177.5 86.4052C1175.69 83.3879 1174.78 79.8952 1174.78 75.9272C1174.78 73.5299 1175.15 71.2152 1175.89 68.9832C1176.72 66.6272 1178 64.6846 1179.74 63.1552C1181.51 61.5846 1183.54 60.7992 1185.81 60.7992C1188 60.7992 1189.8 61.4606 1191.21 62.7832C1192.65 64.0646 1193.38 65.8625 1193.38 68.1772C1193.38 68.9625 1193.17 69.6446 1192.76 70.2232C1192.34 70.8019 1191.81 71.0912 1191.14 71.0912C1190.52 71.0912 1190.01 70.8846 1189.59 70.4712Z" fill="#222222"/>
<path d="M1196.92 61.6052H1217.63L1218.25 71.0912H1217.51C1217.18 68.6939 1216.93 67.0406 1216.76 66.1312C1216.64 65.2219 1216.41 64.4366 1216.08 63.7752C1215.75 63.0726 1215.42 62.7006 1215.09 62.6592C1214.8 62.5766 1214.24 62.4939 1213.42 62.4112H1209.39C1208.97 62.4112 1208.68 62.5146 1208.52 62.7212C1208.39 62.9279 1208.33 63.3206 1208.33 63.8992V87.1492C1208.33 87.8932 1208.46 88.4306 1208.7 88.7612C1208.95 89.0506 1209.41 89.1952 1210.07 89.1952H1212.98V90.0012H1201.57V89.1952H1204.49C1205.15 89.1952 1205.6 89.0506 1205.85 88.7612C1206.1 88.4306 1206.22 87.8932 1206.22 87.1492V63.8992C1206.22 63.3206 1206.14 62.9279 1205.98 62.7212C1205.85 62.5146 1205.58 62.4112 1205.17 62.4112H1201.2C1200.33 62.4939 1199.75 62.5766 1199.47 62.6592C1199.18 62.7006 1198.85 63.0519 1198.47 63.7132C1198.14 64.3332 1197.89 65.1392 1197.73 66.1312C1197.56 67.1232 1197.34 68.7765 1197.05 71.0912H1196.3L1196.92 61.6052Z" fill="#222222"/>
<path d="M1240.79 75.2452H1223.12V76.0512C1223.12 80.1845 1223.89 83.5119 1225.42 86.0332C1226.99 88.5132 1229.09 89.7532 1231.74 89.7532C1233.6 89.7532 1235.27 89.0299 1236.76 87.5832C1238.25 86.0952 1239.3 84.1112 1239.92 81.6312L1240.54 81.8792C1240.01 84.2352 1238.89 86.3226 1237.2 88.1412C1235.54 89.9186 1233.62 90.8072 1231.43 90.8072C1227.96 90.8072 1225.33 89.2986 1223.56 86.2812C1221.78 83.2639 1220.89 79.7712 1220.89 75.8032C1220.89 73.4886 1221.24 71.2152 1221.94 68.9832C1222.69 66.7926 1223.91 64.8912 1225.6 63.2792C1227.3 61.6259 1229.34 60.7992 1231.74 60.7992C1234.67 60.7992 1236.91 62.1839 1238.44 64.9532C1240.01 67.7225 1240.79 71.1532 1240.79 75.2452ZM1231.68 61.6052C1229.24 61.6052 1227.26 62.8039 1225.73 65.2012C1224.24 67.4746 1223.39 70.5125 1223.18 74.3152H1237.07C1237.94 74.3152 1238.37 73.8192 1238.37 72.8272C1238.37 69.8099 1237.75 67.1852 1236.51 64.9532C1235.32 62.7212 1233.7 61.6052 1231.68 61.6052Z" fill="#222222"/>
<path d="M1271.59 89.1952V90.0012H1260.18V89.1952H1263.1C1263.72 89.1952 1264.15 89.0506 1264.4 88.7612C1264.65 88.4306 1264.77 87.8932 1264.77 87.1492V75.4312H1250.39V87.1492C1250.39 87.8932 1250.51 88.4306 1250.76 88.7612C1251.01 89.0506 1251.44 89.1952 1252.06 89.1952H1254.98V90.0012H1243.57V89.1952H1246.54C1247.16 89.1952 1247.6 89.0506 1247.85 88.7612C1248.09 88.4306 1248.22 87.8932 1248.22 87.1492V64.4572C1248.22 63.7132 1248.09 63.1966 1247.85 62.9072C1247.6 62.5766 1247.16 62.4112 1246.54 62.4112H1243.57V61.6052H1254.98V62.4112H1252.06C1251.44 62.4112 1251.01 62.5766 1250.76 62.9072C1250.51 63.1966 1250.39 63.7132 1250.39 64.4572V74.3772H1264.77V64.4572C1264.77 63.7132 1264.65 63.1966 1264.4 62.9072C1264.15 62.5766 1263.72 62.4112 1263.1 62.4112H1260.18V61.6052H1271.59V62.4112H1268.68C1268.02 62.4112 1267.56 62.5766 1267.31 62.9072C1267.07 63.1966 1266.94 63.7132 1266.94 64.4572V87.1492C1266.94 87.8932 1267.07 88.4306 1267.31 88.7612C1267.56 89.0506 1268.02 89.1952 1268.68 89.1952H1271.59Z" fill="#222222"/>
<path d="M1302.6 89.1952V90.0012H1291.32V89.1952H1294.11C1294.77 89.1952 1295.22 89.0506 1295.47 88.7612C1295.72 88.4306 1295.84 87.8932 1295.84 87.1492V65.7592L1280.53 87.2732C1280.53 87.9759 1280.63 88.4719 1280.84 88.7612C1281.09 89.0506 1281.54 89.1952 1282.2 89.1952H1285.06V90.0012H1273.71V89.1952H1276.69C1277.31 89.1952 1277.74 89.0506 1277.99 88.7612C1278.24 88.4306 1278.36 87.8932 1278.36 87.1492V64.4572C1278.36 63.7132 1278.24 63.1966 1277.99 62.9072C1277.74 62.5766 1277.31 62.4112 1276.69 62.4112H1273.71V61.6052H1285.06V62.4112H1282.2C1281.58 62.4112 1281.15 62.5766 1280.9 62.9072C1280.65 63.1966 1280.53 63.7132 1280.53 64.4572V85.8472L1295.84 64.3332C1295.84 63.6306 1295.72 63.1346 1295.47 62.8452C1295.22 62.5559 1294.77 62.4112 1294.11 62.4112H1291.32V61.6052H1302.6V62.4112H1299.69C1299.03 62.4112 1298.57 62.5559 1298.32 62.8452C1298.12 63.1346 1298.01 63.6719 1298.01 64.4572V87.1492C1298.01 87.9346 1298.12 88.4719 1298.32 88.7612C1298.57 89.0506 1299.03 89.1952 1299.69 89.1952H1302.6Z" fill="#222222"/>
<path d="M1333.65 89.1952V90.0012H1322.37V89.1952H1325.16C1325.82 89.1952 1326.27 89.0506 1326.52 88.7612C1326.77 88.4306 1326.89 87.8932 1326.89 87.1492V65.7592L1311.58 87.2732C1311.58 87.9759 1311.68 88.4719 1311.89 88.7612C1312.14 89.0506 1312.59 89.1952 1313.25 89.1952H1316.1V90.0012H1304.76V89.1952H1307.73C1308.35 89.1952 1308.79 89.0506 1309.04 88.7612C1309.28 88.4306 1309.41 87.8932 1309.41 87.1492V64.4572C1309.41 63.7132 1309.28 63.1966 1309.04 62.9072C1308.79 62.5766 1308.35 62.4112 1307.73 62.4112H1304.76V61.6052H1316.1V62.4112H1313.25C1312.63 62.4112 1312.2 62.5766 1311.95 62.9072C1311.7 63.1966 1311.58 63.7132 1311.58 64.4572V85.8472L1326.89 64.3332C1326.89 63.6306 1326.77 63.1346 1326.52 62.8452C1326.27 62.5559 1325.82 62.4112 1325.16 62.4112H1322.37V61.6052H1333.65V62.4112H1330.74C1330.08 62.4112 1329.62 62.5559 1329.37 62.8452C1329.17 63.1346 1329.06 63.6719 1329.06 64.4572V87.1492C1329.06 87.9346 1329.17 88.4719 1329.37 88.7612C1329.62 89.0506 1330.08 89.1952 1330.74 89.1952H1333.65ZM1319.2 56.6452C1322.18 56.6452 1323.98 55.6119 1324.6 53.5452C1324.52 53.5866 1324.35 53.6072 1324.1 53.6072C1323.4 53.6072 1322.9 53.3179 1322.61 52.7392C1322.37 52.1192 1322.37 51.4992 1322.61 50.8792C1322.9 50.2592 1323.38 49.9492 1324.04 49.9492C1324.5 49.9492 1324.89 50.1559 1325.22 50.5692C1325.59 50.9826 1325.78 51.4579 1325.78 51.9952C1325.74 53.9792 1325.05 55.4052 1323.73 56.2732C1322.45 57.0999 1320.94 57.4926 1319.2 57.4512C1317.3 57.4512 1315.73 57.0172 1314.49 56.1492C1313.25 55.2399 1312.63 53.8552 1312.63 51.9952C1312.63 51.4579 1312.8 50.9826 1313.13 50.5692C1313.46 50.1559 1313.87 49.9492 1314.37 49.9492C1315.03 49.9492 1315.48 50.2592 1315.73 50.8792C1316.02 51.4992 1316.02 52.1192 1315.73 52.7392C1315.48 53.3179 1315.01 53.6072 1314.31 53.6072C1314.02 53.6072 1313.85 53.5866 1313.81 53.5452C1314.39 55.6119 1316.19 56.6452 1319.2 56.6452Z" fill="#222222"/>
</svg>
