<svg width="26" height="25" viewBox="0 0 26 25" fill="none" xmlns="http://www.w3.org/2000/svg">
<path d="M12.821 16.8551L16.6582 21.5641C18.0799 23.3086 18.7907 24.181 19.5348 23.9686C20.2788 23.7562 20.534 22.6083 21.0443 20.3121L23.8749 7.57533C24.6609 4.03897 25.0538 2.2708 24.1802 1.39867C23.3068 0.526542 21.7927 1.17537 18.7646 2.47305L4.71574 8.49353C2.29384 9.53141 1.08288 10.0504 1.006 10.9422C0.998131 11.0334 0.998001 11.1253 1.00561 11.2165C1.07996 12.1086 2.28943 12.632 4.70839 13.6785C5.80441 14.1527 6.35242 14.3899 6.74533 14.844C6.78952 14.895 6.83199 14.9479 6.87269 15.0024C7.2347 15.488 7.3892 16.1252 7.69817 17.3995L8.27641 19.7846C8.57707 21.0247 8.7274 21.6448 9.12113 21.7294C9.51485 21.8139 9.85767 21.2997 10.5433 20.2714L12.821 16.8551ZM12.821 16.8551L12.4447 16.4319C12.0165 15.9502 11.8025 15.7094 11.8025 15.4102C11.8025 15.1109 12.0165 14.8701 12.4447 14.3883L16.6745 9.63024" stroke="#222222" stroke-width="2" stroke-linecap="round" stroke-linejoin="round"/>
</svg>
