<svg width="1200" height="309" viewBox="0 0 1200 309" fill="none" xmlns="http://www.w3.org/2000/svg">
<path d="M305.781 243.135H281.138L281.139 0L305.781 4.30855e-06L305.781 243.135Z" fill="#3A3A3A"/>
<path d="M415.232 73.5977C434.07 73.5977 449.403 78.6356 461.231 88.7114C473.059 98.5683 478.973 112.477 478.973 130.439L478.973 243.135H454.331V197.794C443.16 230.212 421.475 246.421 389.276 246.421C374.162 246.421 361.787 242.259 352.149 233.935C342.73 225.612 338.021 214.55 338.021 200.751C338.021 185.856 343.387 174.356 354.12 166.252C365.072 158.147 379.2 153.219 396.504 151.467L433.632 147.195C447.431 145.881 454.331 139.529 454.331 128.139C454.331 117.844 450.717 109.739 443.489 103.825C436.26 97.9111 426.732 94.9541 414.904 94.9541C403.076 94.9541 392.89 97.9111 384.348 103.825C375.805 109.739 370.001 118.83 366.934 131.096L342.949 124.525C346.892 108.097 355.325 95.5017 368.248 86.7401C381.391 77.9785 397.052 73.5976 415.232 73.5977ZM395.519 225.721C412.385 225.721 426.404 220.136 437.575 208.965C448.746 197.575 454.331 184.323 454.331 169.209V155.409C451.265 161.981 443.817 165.923 431.989 167.238L396.176 171.18C386.1 172.494 377.996 175.561 371.862 180.38C365.729 184.98 362.663 191.332 362.663 199.436C362.663 207.322 365.62 213.674 371.534 218.493C377.667 223.312 385.662 225.721 395.519 225.721Z" fill="#3A3A3A"/>
<path d="M605.941 73.5977C625.436 73.5977 641.426 80.3879 653.911 93.9685C666.616 107.549 672.968 124.634 672.968 145.224V243.135L648.326 243.135V148.181C648.326 133.505 643.507 121.239 633.869 111.382C624.231 101.306 612.294 96.2684 598.056 96.2684C582.504 96.2684 569.69 101.197 559.614 111.054C549.539 120.91 544.501 133.286 544.501 148.181V243.135H519.859L519.859 76.8833L544.501 76.8833V119.596C549.101 105.578 556.876 94.4065 567.828 86.083C578.78 77.7594 591.485 73.5977 605.941 73.5977Z" fill="#3A3A3A"/>
<path d="M729.629 99.2255L692.173 99.2254L692.173 76.8833L729.629 76.8833V17.4138L754.271 9.8569V76.8833L804.87 76.8833V99.2255L754.271 99.2255L754.271 186.623C754.271 198.889 756.9 207.651 762.157 212.908C767.414 218.164 776.066 220.793 788.113 220.793H804.87V243.135L788.113 243.135C768.18 243.135 753.395 238.426 743.757 229.007C734.339 219.588 729.629 205.132 729.629 185.637V99.2255Z" fill="#3A3A3A"/>
<path d="M836.784 27.5992C836.784 22.9993 838.317 19.1661 841.384 16.0996C844.45 13.033 848.283 11.4997 852.883 11.4997C857.264 11.4997 860.988 13.033 864.054 16.0996C867.34 19.1661 868.983 22.9994 868.983 27.5992C868.983 31.98 867.34 35.7037 864.054 38.7703C860.988 41.8368 857.264 43.3701 852.883 43.3701C848.283 43.3701 844.45 41.8368 841.384 38.7703C838.317 35.7037 836.784 31.98 836.784 27.5992ZM865.04 243.135H840.398V76.8833L865.04 76.8833V243.135Z" fill="#3A3A3A"/>
<path d="M986.32 73.5977C1011.95 73.5978 1032.98 82.6879 1049.4 100.868C1066.05 118.83 1073.39 141.062 1071.42 167.566L925.208 167.566C926.96 184.213 933.641 197.903 945.25 208.636C957.078 219.15 971.425 224.407 988.291 224.407C1001.21 224.407 1012.71 221.231 1022.79 214.879C1032.87 208.527 1040.53 199.875 1045.79 188.923L1066.82 197.794C1059.81 212.469 1049.4 224.298 1035.6 233.278C1021.8 242.04 1005.92 246.421 987.963 246.421C963.211 246.421 942.402 238.207 925.536 221.779C908.889 205.132 900.566 184.542 900.566 160.009C900.566 135.477 908.78 114.996 925.208 98.5684C941.636 81.9213 962.006 73.5977 986.32 73.5977ZM986.32 95.6113C971.206 95.6113 958.064 100.43 946.893 110.068C935.721 119.706 928.712 132.082 925.865 147.195L1046.45 147.195C1044.04 132.301 1037.25 120.034 1026.08 110.397C1015.12 100.54 1001.87 95.6113 986.32 95.6113Z" fill="#3A3A3A"/>
<path d="M1132.32 76.8834V121.568C1138.01 102.511 1146.77 89.2592 1158.6 81.8118C1170.65 74.3644 1184.45 72.0645 1200 74.912V98.897C1181.38 94.7352 1165.39 97.5827 1152.03 107.44C1138.89 117.077 1132.32 130.658 1132.32 148.181V243.135H1107.67V76.8834L1132.32 76.8834Z" fill="#3A3A3A"/>
<path d="M163.573 72.6968C186.22 72.6968 205.02 81.0523 219.972 97.7631C235.143 114.254 242.729 134.813 242.729 159.439C242.729 184.286 235.143 204.954 219.972 221.445C205.02 237.936 186.22 246.182 163.573 246.182C147.082 246.182 132.46 241.454 119.707 231.999C107.174 222.325 98.1586 209.572 92.6616 193.74V308.847H67.9252V75.995H92.6616V125.468C98.1586 109.417 107.174 96.6637 119.707 87.2089C132.46 77.5342 147.082 72.6968 163.573 72.6968ZM156.646 223.094C173.797 223.094 188.199 217.048 199.853 204.954C211.506 192.641 217.333 177.469 217.333 159.439C217.333 141.409 211.506 126.347 199.853 114.254C188.199 101.941 173.797 95.7842 156.646 95.7842C138.177 95.7842 122.895 101.831 110.802 113.924C98.7083 126.018 92.6616 141.189 92.6616 159.439C92.6616 177.689 98.7083 192.861 110.802 204.954C122.895 217.048 138.177 223.094 156.646 223.094Z" fill="#3A3A3A"/>
<path d="M67.9427 218.363V173.508C62.2258 192.637 53.4307 205.94 41.5572 213.416C29.4638 220.892 15.6114 223.2 0 220.342V196.265C18.6897 200.443 34.7409 197.584 48.1535 187.69C61.3463 178.015 67.9427 164.383 67.9427 146.792V51.4745H92.6791V218.363H67.9427Z" fill="#3A3A3A"/>
</svg>
