<svg width="28" height="28" viewBox="0 0 28 28" fill="none" xmlns="http://www.w3.org/2000/svg">
<path d="M19.7362 9.02734L19.2623 16.6936C19.1412 18.6522 19.0807 19.6316 18.5898 20.3357C18.347 20.6838 18.0345 20.9776 17.672 21.1984C16.939 21.645 15.9578 21.645 13.9953 21.645C12.0304 21.645 11.0479 21.645 10.3143 21.1976C9.95165 20.9764 9.63904 20.6821 9.39638 20.3334C8.90559 19.6282 8.84638 18.6474 8.72797 16.686L8.26562 9.02734" stroke="#141B34" stroke-width="1.5" stroke-linecap="round"/>
<path d="M14 27C21.1797 27 27 21.1797 27 14C27 6.8203 21.1797 1 14 1C6.8203 1 1 6.8203 1 14C1 21.1797 6.8203 27 14 27Z" stroke="#141B34" stroke-width="1.5"/>
<path d="M20.8819 9.02734H7.11719" stroke="#141B34" stroke-width="1.5" stroke-linecap="round"/>
<path d="M17.1042 9.02803L16.5821 7.95112C16.2353 7.23576 16.062 6.87808 15.7629 6.65501C15.6965 6.60552 15.6263 6.5615 15.5528 6.52339C15.2216 6.35156 14.8241 6.35156 14.0291 6.35156C13.2142 6.35156 12.8067 6.35156 12.47 6.5306C12.3954 6.57028 12.3242 6.61607 12.2571 6.66752C11.9546 6.89963 11.7856 7.27039 11.4475 8.01194L10.9844 9.02803" stroke="#141B34" stroke-width="1.5" stroke-linecap="round"/>
<path d="M12.0898 17.4398V12.8516" stroke="#141B34" stroke-width="1.5" stroke-linecap="round"/>
<path d="M15.9102 17.4398V12.8516" stroke="#141B34" stroke-width="1.5" stroke-linecap="round"/>
</svg>
