<svg width="32" height="30" viewBox="0 0 32 30" fill="none" xmlns="http://www.w3.org/2000/svg">
<path d="M19.0067 27.7435C24.8519 27.3543 29.5079 22.6239 29.891 16.6854C29.9659 15.5233 29.9659 14.3197 29.891 13.1576C29.5079 7.21908 24.8519 2.48872 19.0067 2.09949C17.0125 1.9667 14.9306 1.96698 12.9405 2.09949C7.09532 2.48872 2.43934 7.21908 2.05623 13.1576C1.98126 14.3197 1.98126 15.5233 2.05623 16.6854C2.19577 18.8483 3.15063 20.8509 4.27477 22.5419C4.92748 23.7257 4.49672 25.2032 3.81686 26.4939C3.32667 27.4245 3.08157 27.8898 3.27836 28.2259C3.47516 28.562 3.91474 28.5727 4.79392 28.5942C6.53258 28.6366 7.70498 28.1427 8.63562 27.4553C9.16343 27.0654 9.42735 26.8704 9.60924 26.848C9.79112 26.8256 10.1491 26.9733 10.8649 27.2687C11.5082 27.5341 12.2552 27.6979 12.9405 27.7435C14.9306 27.8761 17.0125 27.8763 19.0067 27.7435Z" stroke="#303030" stroke-width="2.1396" stroke-linejoin="round"/>
</svg>
