<svg width="28" height="28" viewBox="0 0 28 28" fill="none" xmlns="http://www.w3.org/2000/svg">
<path d="M15.5844 7.03166C16.1543 6.41426 16.4392 6.10556 16.7419 5.9255C17.4725 5.49101 18.3721 5.4775 19.1148 5.88985C19.4226 6.06075 19.7163 6.36076 20.3036 6.96078C20.891 7.5608 21.1847 7.86081 21.352 8.17526C21.7556 8.93399 21.7424 9.85292 21.3171 10.5992C21.1408 10.9085 20.8386 11.1996 20.2343 11.7817L13.0432 18.7078C11.8979 19.811 11.3252 20.3626 10.6095 20.6421C9.89377 20.9217 9.10695 20.9011 7.53331 20.8599L7.31921 20.8544C6.84014 20.8418 6.60061 20.8356 6.46137 20.6775C6.32212 20.5195 6.34113 20.2755 6.37915 19.7875L6.3998 19.5226C6.50681 18.149 6.56031 17.4623 6.82852 16.8449C7.09672 16.2276 7.55937 15.7264 8.48466 14.7239L15.5844 7.03166Z" stroke="#141B34" stroke-width="1.5" stroke-linejoin="round"/>
<path d="M14.7656 7.11719L20.1186 12.4701" stroke="#141B34" stroke-width="1.5" stroke-linejoin="round"/>
<path d="M15.5273 20.8828H21.645" stroke="#141B34" stroke-width="1.5" stroke-linecap="round" stroke-linejoin="round"/>
<path d="M14 27C21.1797 27 27 21.1797 27 14C27 6.8203 21.1797 1 14 1C6.8203 1 1 6.8203 1 14C1 21.1797 6.8203 27 14 27Z" stroke="#141B34" stroke-width="1.5"/>
</svg>
