<svg width="20" height="24" viewBox="0 0 20 24" fill="none" xmlns="http://www.w3.org/2000/svg">
<path d="M11.6177 21.4842C11.1841 21.9012 10.6044 22.1343 10.0011 22.1343C9.3978 22.1343 8.8182 21.9012 8.3845 21.4842C4.41302 17.6423 -0.90924 13.3505 1.68627 7.11969C3.08963 3.75073 6.45834 1.59497 10.0011 1.59497C13.5439 1.59497 16.9126 3.75073 18.316 7.11969C20.9082 13.3427 15.599 17.6556 11.6177 21.4842Z" stroke="#222222" stroke-width="2"/>
<path d="M13.5 10.8375C13.5 12.8227 11.933 14.4319 10 14.4319C8.067 14.4319 6.5 12.8227 6.5 10.8375C6.5 8.85242 8.067 7.24316 10 7.24316C11.933 7.24316 13.5 8.85242 13.5 10.8375Z" stroke="#222222" stroke-width="2"/>
</svg>
