<svg width="99" height="26" viewBox="0 0 99 26" fill="none" xmlns="http://www.w3.org/2000/svg">
<mask id="path-1-inside-1_2767_1184" fill="white">
<path d="M25.114 19.9688H23.0901L23.0901 0L25.114 3.53864e-07L25.114 19.9688Z"/>
<path d="M34.1033 6.04462C35.6504 6.04462 36.9097 6.45839 37.8812 7.28593C38.8526 8.09547 39.3384 9.23783 39.3384 10.713L39.3384 19.9688H37.3145V16.2449C36.397 18.9074 34.616 20.2387 31.9715 20.2387C30.7302 20.2387 29.7138 19.8969 28.9222 19.2133C28.1486 18.5296 27.7618 17.6211 27.7618 16.4878C27.7618 15.2645 28.2026 14.32 29.0841 13.6544C29.9836 12.9887 31.144 12.584 32.5652 12.44L35.6145 12.0892C36.7478 11.9813 37.3145 11.4596 37.3145 10.5241C37.3145 9.67859 37.0177 9.01296 36.424 8.52723C35.8303 8.0415 35.0478 7.79864 34.0763 7.79864C33.1049 7.79864 32.2683 8.0415 31.5667 8.52723C30.8651 9.01296 30.3884 9.75954 30.1365 10.767L28.1666 10.2273C28.4904 8.87803 29.1831 7.84361 30.2445 7.12402C31.3239 6.40442 32.6101 6.04462 34.1033 6.04462ZM32.4842 18.5386C33.8694 18.5386 35.0208 18.0799 35.9383 17.1624C36.8558 16.2269 37.3145 15.1385 37.3145 13.8972V12.7639C37.0626 13.3036 36.451 13.6274 35.4795 13.7353L32.5382 14.0591C31.7106 14.1671 31.045 14.4189 30.5413 14.8147C30.0376 15.1925 29.7857 15.7142 29.7857 16.3798C29.7857 17.0275 30.0286 17.5492 30.5143 17.945C31.018 18.3407 31.6747 18.5386 32.4842 18.5386Z"/>
<path d="M49.7664 6.04462C51.3675 6.04462 52.6807 6.60231 53.7062 7.71769C54.7496 8.83306 55.2713 10.2363 55.2713 11.9273V19.9688L53.2474 19.9688V12.1702C53.2474 10.9649 52.8516 9.95744 52.0601 9.14789C51.2685 8.32035 50.2881 7.90658 49.1187 7.90658C47.8414 7.90658 46.789 8.31135 45.9615 9.1209C45.1339 9.93045 44.7202 10.9469 44.7202 12.1702V19.9688H42.6963L42.6963 6.31447L44.7202 6.31447V9.82251C45.098 8.67115 45.7366 7.75367 46.6361 7.07005C47.5356 6.38643 48.579 6.04462 49.7664 6.04462Z"/>
<path d="M59.9249 8.14945L56.8486 8.14945L56.8486 6.31447L59.9249 6.31447V1.43021L61.9488 0.809553V6.31447L66.1044 6.31447V8.14945H61.9488L61.9488 15.3274C61.9488 16.3349 62.1646 17.0545 62.5964 17.4862C63.0282 17.918 63.7388 18.1339 64.7282 18.1339H66.1044V19.9688L64.7282 19.9688C63.0911 19.9688 61.8768 19.5821 61.0853 18.8085C60.3117 18.0349 59.9249 16.8476 59.9249 15.2465L59.9249 8.14945Z"/>
<path d="M68.7256 2.26674C68.7256 1.88895 68.8515 1.57413 69.1034 1.32227C69.3552 1.07041 69.67 0.944479 70.0478 0.944479C70.4076 0.944479 70.7135 1.07041 70.9653 1.32227C71.2352 1.57413 71.3701 1.88895 71.3701 2.26674C71.3701 2.62654 71.2352 2.93237 70.9653 3.18423C70.7135 3.43609 70.4076 3.56202 70.0478 3.56202C69.67 3.56201 69.3552 3.43609 69.1034 3.18423C68.8515 2.93237 68.7256 2.62654 68.7256 2.26674ZM71.0463 19.9688H69.0224L69.0224 6.31448L71.0463 6.31448V19.9688Z"/>
<path d="M81.0071 6.04463C83.1119 6.04463 84.8389 6.79121 86.1882 8.28438C87.5554 9.75955 88.1581 11.5855 87.9962 13.7623L75.9879 13.7623C76.1318 15.1295 76.6805 16.2539 77.634 17.1354C78.6054 17.9989 79.7838 18.4307 81.169 18.4307C82.2304 18.4307 83.1749 18.1698 84.0024 17.6481C84.8299 17.1264 85.4596 16.4158 85.8913 15.5163L87.6184 16.2449C87.0427 17.4503 86.1882 18.4217 85.0548 19.1593C83.9214 19.8789 82.6172 20.2387 81.142 20.2387C79.1091 20.2387 77.4001 19.5641 76.0149 18.2148C74.6476 16.8476 73.964 15.1565 73.964 13.1417C73.964 11.1268 74.6386 9.44473 75.9879 8.09548C77.3371 6.72825 79.0102 6.04463 81.0071 6.04463ZM81.0071 7.85262C79.7658 7.85262 78.6864 8.24839 77.7689 9.03995C76.8514 9.83151 76.2757 10.8479 76.0419 12.0892L85.9453 12.0892C85.7474 10.8659 85.1897 9.8585 84.2722 9.06694C83.3728 8.25739 82.2844 7.85262 81.0071 7.85262Z"/>
<path d="M92.9979 6.31448V9.98443C93.4656 8.4193 94.1852 7.33091 95.1567 6.71925C96.1461 6.1076 97.2795 5.9187 98.5568 6.15257V8.12247C97.0276 7.78066 95.7143 8.01453 94.617 8.82408C93.5376 9.61563 92.9979 10.731 92.9979 12.1702V19.9688H90.974V6.31448L92.9979 6.31448Z"/>
<path d="M13.4343 5.97064C15.2944 5.97064 16.8384 6.65687 18.0664 8.02934C19.3125 9.38375 19.9355 11.0723 19.9355 13.0948C19.9355 15.1355 19.3125 16.833 18.0664 18.1874C16.8384 19.5418 15.2944 20.219 13.4343 20.219C12.0799 20.219 10.879 19.8308 9.83159 19.0543C8.80224 18.2597 8.06183 17.2123 7.61036 15.912V25.3658H5.57874V6.24152H7.61036V10.3048C8.06183 8.98646 8.80224 7.93905 9.83159 7.16252C10.879 6.36793 12.0799 5.97064 13.4343 5.97064ZM12.8655 18.3229C14.2741 18.3229 15.4569 17.8263 16.414 16.833C17.3711 15.8217 17.8497 14.5757 17.8497 13.0948C17.8497 11.614 17.3711 10.377 16.414 9.38375C15.4569 8.37246 14.2741 7.86681 12.8655 7.86681C11.3485 7.86681 10.0934 8.36343 9.10021 9.35667C8.10697 10.3499 7.61036 11.596 7.61036 13.0948C7.61036 14.5937 8.10697 15.8398 9.10021 16.833C10.0934 17.8263 11.3485 18.3229 12.8655 18.3229Z"/>
<path d="M5.58017 17.9343V14.2503C5.11065 15.8214 4.38829 16.914 3.41312 17.528C2.41988 18.142 1.28218 18.3316 0 18.0968V16.1194C1.535 16.4625 2.85329 16.2277 3.95488 15.4151C5.03841 14.6205 5.58017 13.5008 5.58017 12.0561V4.22763H7.61179V17.9343H5.58017Z"/>
</mask>
<path d="M25.114 19.9688H23.0901L23.0901 0L25.114 3.53864e-07L25.114 19.9688Z" fill="#303030"/>
<path d="M34.1033 6.04462C35.6504 6.04462 36.9097 6.45839 37.8812 7.28593C38.8526 8.09547 39.3384 9.23783 39.3384 10.713L39.3384 19.9688H37.3145V16.2449C36.397 18.9074 34.616 20.2387 31.9715 20.2387C30.7302 20.2387 29.7138 19.8969 28.9222 19.2133C28.1486 18.5296 27.7618 17.6211 27.7618 16.4878C27.7618 15.2645 28.2026 14.32 29.0841 13.6544C29.9836 12.9887 31.144 12.584 32.5652 12.44L35.6145 12.0892C36.7478 11.9813 37.3145 11.4596 37.3145 10.5241C37.3145 9.67859 37.0177 9.01296 36.424 8.52723C35.8303 8.0415 35.0478 7.79864 34.0763 7.79864C33.1049 7.79864 32.2683 8.0415 31.5667 8.52723C30.8651 9.01296 30.3884 9.75954 30.1365 10.767L28.1666 10.2273C28.4904 8.87803 29.1831 7.84361 30.2445 7.12402C31.3239 6.40442 32.6101 6.04462 34.1033 6.04462ZM32.4842 18.5386C33.8694 18.5386 35.0208 18.0799 35.9383 17.1624C36.8558 16.2269 37.3145 15.1385 37.3145 13.8972V12.7639C37.0626 13.3036 36.451 13.6274 35.4795 13.7353L32.5382 14.0591C31.7106 14.1671 31.045 14.4189 30.5413 14.8147C30.0376 15.1925 29.7857 15.7142 29.7857 16.3798C29.7857 17.0275 30.0286 17.5492 30.5143 17.945C31.018 18.3407 31.6747 18.5386 32.4842 18.5386Z" fill="#303030"/>
<path d="M49.7664 6.04462C51.3675 6.04462 52.6807 6.60231 53.7062 7.71769C54.7496 8.83306 55.2713 10.2363 55.2713 11.9273V19.9688L53.2474 19.9688V12.1702C53.2474 10.9649 52.8516 9.95744 52.0601 9.14789C51.2685 8.32035 50.2881 7.90658 49.1187 7.90658C47.8414 7.90658 46.789 8.31135 45.9615 9.1209C45.1339 9.93045 44.7202 10.9469 44.7202 12.1702V19.9688H42.6963L42.6963 6.31447L44.7202 6.31447V9.82251C45.098 8.67115 45.7366 7.75367 46.6361 7.07005C47.5356 6.38643 48.579 6.04462 49.7664 6.04462Z" fill="#303030"/>
<path d="M59.9249 8.14945L56.8486 8.14945L56.8486 6.31447L59.9249 6.31447V1.43021L61.9488 0.809553V6.31447L66.1044 6.31447V8.14945H61.9488L61.9488 15.3274C61.9488 16.3349 62.1646 17.0545 62.5964 17.4862C63.0282 17.918 63.7388 18.1339 64.7282 18.1339H66.1044V19.9688L64.7282 19.9688C63.0911 19.9688 61.8768 19.5821 61.0853 18.8085C60.3117 18.0349 59.9249 16.8476 59.9249 15.2465L59.9249 8.14945Z" fill="#303030"/>
<path d="M68.7256 2.26674C68.7256 1.88895 68.8515 1.57413 69.1034 1.32227C69.3552 1.07041 69.67 0.944479 70.0478 0.944479C70.4076 0.944479 70.7135 1.07041 70.9653 1.32227C71.2352 1.57413 71.3701 1.88895 71.3701 2.26674C71.3701 2.62654 71.2352 2.93237 70.9653 3.18423C70.7135 3.43609 70.4076 3.56202 70.0478 3.56202C69.67 3.56201 69.3552 3.43609 69.1034 3.18423C68.8515 2.93237 68.7256 2.62654 68.7256 2.26674ZM71.0463 19.9688H69.0224L69.0224 6.31448L71.0463 6.31448V19.9688Z" fill="#303030"/>
<path d="M81.0071 6.04463C83.1119 6.04463 84.8389 6.79121 86.1882 8.28438C87.5554 9.75955 88.1581 11.5855 87.9962 13.7623L75.9879 13.7623C76.1318 15.1295 76.6805 16.2539 77.634 17.1354C78.6054 17.9989 79.7838 18.4307 81.169 18.4307C82.2304 18.4307 83.1749 18.1698 84.0024 17.6481C84.8299 17.1264 85.4596 16.4158 85.8913 15.5163L87.6184 16.2449C87.0427 17.4503 86.1882 18.4217 85.0548 19.1593C83.9214 19.8789 82.6172 20.2387 81.142 20.2387C79.1091 20.2387 77.4001 19.5641 76.0149 18.2148C74.6476 16.8476 73.964 15.1565 73.964 13.1417C73.964 11.1268 74.6386 9.44473 75.9879 8.09548C77.3371 6.72825 79.0102 6.04463 81.0071 6.04463ZM81.0071 7.85262C79.7658 7.85262 78.6864 8.24839 77.7689 9.03995C76.8514 9.83151 76.2757 10.8479 76.0419 12.0892L85.9453 12.0892C85.7474 10.8659 85.1897 9.8585 84.2722 9.06694C83.3728 8.25739 82.2844 7.85262 81.0071 7.85262Z" fill="#303030"/>
<path d="M92.9979 6.31448V9.98443C93.4656 8.4193 94.1852 7.33091 95.1567 6.71925C96.1461 6.1076 97.2795 5.9187 98.5568 6.15257V8.12247C97.0276 7.78066 95.7143 8.01453 94.617 8.82408C93.5376 9.61563 92.9979 10.731 92.9979 12.1702V19.9688H90.974V6.31448L92.9979 6.31448Z" fill="#303030"/>
<path d="M13.4343 5.97064C15.2944 5.97064 16.8384 6.65687 18.0664 8.02934C19.3125 9.38375 19.9355 11.0723 19.9355 13.0948C19.9355 15.1355 19.3125 16.833 18.0664 18.1874C16.8384 19.5418 15.2944 20.219 13.4343 20.219C12.0799 20.219 10.879 19.8308 9.83159 19.0543C8.80224 18.2597 8.06183 17.2123 7.61036 15.912V25.3658H5.57874V6.24152H7.61036V10.3048C8.06183 8.98646 8.80224 7.93905 9.83159 7.16252C10.879 6.36793 12.0799 5.97064 13.4343 5.97064ZM12.8655 18.3229C14.2741 18.3229 15.4569 17.8263 16.414 16.833C17.3711 15.8217 17.8497 14.5757 17.8497 13.0948C17.8497 11.614 17.3711 10.377 16.414 9.38375C15.4569 8.37246 14.2741 7.86681 12.8655 7.86681C11.3485 7.86681 10.0934 8.36343 9.10021 9.35667C8.10697 10.3499 7.61036 11.596 7.61036 13.0948C7.61036 14.5937 8.10697 15.8398 9.10021 16.833C10.0934 17.8263 11.3485 18.3229 12.8655 18.3229Z" fill="#303030"/>
<path d="M5.58017 17.9343V14.2503C5.11065 15.8214 4.38829 16.914 3.41312 17.528C2.41988 18.142 1.28218 18.3316 0 18.0968V16.1194C1.535 16.4625 2.85329 16.2277 3.95488 15.4151C5.03841 14.6205 5.58017 13.5008 5.58017 12.0561V4.22763H7.61179V17.9343H5.58017Z" fill="#303030"/>
<path d="M25.114 19.9688H23.0901L23.0901 0L25.114 3.53864e-07L25.114 19.9688Z" stroke="#303030" stroke-width="0.6" mask="url(#path-1-inside-1_2767_1184)"/>
<path d="M34.1033 6.04462C35.6504 6.04462 36.9097 6.45839 37.8812 7.28593C38.8526 8.09547 39.3384 9.23783 39.3384 10.713L39.3384 19.9688H37.3145V16.2449C36.397 18.9074 34.616 20.2387 31.9715 20.2387C30.7302 20.2387 29.7138 19.8969 28.9222 19.2133C28.1486 18.5296 27.7618 17.6211 27.7618 16.4878C27.7618 15.2645 28.2026 14.32 29.0841 13.6544C29.9836 12.9887 31.144 12.584 32.5652 12.44L35.6145 12.0892C36.7478 11.9813 37.3145 11.4596 37.3145 10.5241C37.3145 9.67859 37.0177 9.01296 36.424 8.52723C35.8303 8.0415 35.0478 7.79864 34.0763 7.79864C33.1049 7.79864 32.2683 8.0415 31.5667 8.52723C30.8651 9.01296 30.3884 9.75954 30.1365 10.767L28.1666 10.2273C28.4904 8.87803 29.1831 7.84361 30.2445 7.12402C31.3239 6.40442 32.6101 6.04462 34.1033 6.04462ZM32.4842 18.5386C33.8694 18.5386 35.0208 18.0799 35.9383 17.1624C36.8558 16.2269 37.3145 15.1385 37.3145 13.8972V12.7639C37.0626 13.3036 36.451 13.6274 35.4795 13.7353L32.5382 14.0591C31.7106 14.1671 31.045 14.4189 30.5413 14.8147C30.0376 15.1925 29.7857 15.7142 29.7857 16.3798C29.7857 17.0275 30.0286 17.5492 30.5143 17.945C31.018 18.3407 31.6747 18.5386 32.4842 18.5386Z" stroke="#303030" stroke-width="0.6" mask="url(#path-1-inside-1_2767_1184)"/>
<path d="M49.7664 6.04462C51.3675 6.04462 52.6807 6.60231 53.7062 7.71769C54.7496 8.83306 55.2713 10.2363 55.2713 11.9273V19.9688L53.2474 19.9688V12.1702C53.2474 10.9649 52.8516 9.95744 52.0601 9.14789C51.2685 8.32035 50.2881 7.90658 49.1187 7.90658C47.8414 7.90658 46.789 8.31135 45.9615 9.1209C45.1339 9.93045 44.7202 10.9469 44.7202 12.1702V19.9688H42.6963L42.6963 6.31447L44.7202 6.31447V9.82251C45.098 8.67115 45.7366 7.75367 46.6361 7.07005C47.5356 6.38643 48.579 6.04462 49.7664 6.04462Z" stroke="#303030" stroke-width="0.6" mask="url(#path-1-inside-1_2767_1184)"/>
<path d="M59.9249 8.14945L56.8486 8.14945L56.8486 6.31447L59.9249 6.31447V1.43021L61.9488 0.809553V6.31447L66.1044 6.31447V8.14945H61.9488L61.9488 15.3274C61.9488 16.3349 62.1646 17.0545 62.5964 17.4862C63.0282 17.918 63.7388 18.1339 64.7282 18.1339H66.1044V19.9688L64.7282 19.9688C63.0911 19.9688 61.8768 19.5821 61.0853 18.8085C60.3117 18.0349 59.9249 16.8476 59.9249 15.2465L59.9249 8.14945Z" stroke="#303030" stroke-width="0.6" mask="url(#path-1-inside-1_2767_1184)"/>
<path d="M68.7256 2.26674C68.7256 1.88895 68.8515 1.57413 69.1034 1.32227C69.3552 1.07041 69.67 0.944479 70.0478 0.944479C70.4076 0.944479 70.7135 1.07041 70.9653 1.32227C71.2352 1.57413 71.3701 1.88895 71.3701 2.26674C71.3701 2.62654 71.2352 2.93237 70.9653 3.18423C70.7135 3.43609 70.4076 3.56202 70.0478 3.56202C69.67 3.56201 69.3552 3.43609 69.1034 3.18423C68.8515 2.93237 68.7256 2.62654 68.7256 2.26674ZM71.0463 19.9688H69.0224L69.0224 6.31448L71.0463 6.31448V19.9688Z" stroke="#303030" stroke-width="0.6" mask="url(#path-1-inside-1_2767_1184)"/>
<path d="M81.0071 6.04463C83.1119 6.04463 84.8389 6.79121 86.1882 8.28438C87.5554 9.75955 88.1581 11.5855 87.9962 13.7623L75.9879 13.7623C76.1318 15.1295 76.6805 16.2539 77.634 17.1354C78.6054 17.9989 79.7838 18.4307 81.169 18.4307C82.2304 18.4307 83.1749 18.1698 84.0024 17.6481C84.8299 17.1264 85.4596 16.4158 85.8913 15.5163L87.6184 16.2449C87.0427 17.4503 86.1882 18.4217 85.0548 19.1593C83.9214 19.8789 82.6172 20.2387 81.142 20.2387C79.1091 20.2387 77.4001 19.5641 76.0149 18.2148C74.6476 16.8476 73.964 15.1565 73.964 13.1417C73.964 11.1268 74.6386 9.44473 75.9879 8.09548C77.3371 6.72825 79.0102 6.04463 81.0071 6.04463ZM81.0071 7.85262C79.7658 7.85262 78.6864 8.24839 77.7689 9.03995C76.8514 9.83151 76.2757 10.8479 76.0419 12.0892L85.9453 12.0892C85.7474 10.8659 85.1897 9.8585 84.2722 9.06694C83.3728 8.25739 82.2844 7.85262 81.0071 7.85262Z" stroke="#303030" stroke-width="0.6" mask="url(#path-1-inside-1_2767_1184)"/>
<path d="M92.9979 6.31448V9.98443C93.4656 8.4193 94.1852 7.33091 95.1567 6.71925C96.1461 6.1076 97.2795 5.9187 98.5568 6.15257V8.12247C97.0276 7.78066 95.7143 8.01453 94.617 8.82408C93.5376 9.61563 92.9979 10.731 92.9979 12.1702V19.9688H90.974V6.31448L92.9979 6.31448Z" stroke="#303030" stroke-width="0.6" mask="url(#path-1-inside-1_2767_1184)"/>
<path d="M13.4343 5.97064C15.2944 5.97064 16.8384 6.65687 18.0664 8.02934C19.3125 9.38375 19.9355 11.0723 19.9355 13.0948C19.9355 15.1355 19.3125 16.833 18.0664 18.1874C16.8384 19.5418 15.2944 20.219 13.4343 20.219C12.0799 20.219 10.879 19.8308 9.83159 19.0543C8.80224 18.2597 8.06183 17.2123 7.61036 15.912V25.3658H5.57874V6.24152H7.61036V10.3048C8.06183 8.98646 8.80224 7.93905 9.83159 7.16252C10.879 6.36793 12.0799 5.97064 13.4343 5.97064ZM12.8655 18.3229C14.2741 18.3229 15.4569 17.8263 16.414 16.833C17.3711 15.8217 17.8497 14.5757 17.8497 13.0948C17.8497 11.614 17.3711 10.377 16.414 9.38375C15.4569 8.37246 14.2741 7.86681 12.8655 7.86681C11.3485 7.86681 10.0934 8.36343 9.10021 9.35667C8.10697 10.3499 7.61036 11.596 7.61036 13.0948C7.61036 14.5937 8.10697 15.8398 9.10021 16.833C10.0934 17.8263 11.3485 18.3229 12.8655 18.3229Z" stroke="#303030" stroke-width="0.6" mask="url(#path-1-inside-1_2767_1184)"/>
<path d="M5.58017 17.9343V14.2503C5.11065 15.8214 4.38829 16.914 3.41312 17.528C2.41988 18.142 1.28218 18.3316 0 18.0968V16.1194C1.535 16.4625 2.85329 16.2277 3.95488 15.4151C5.03841 14.6205 5.58017 13.5008 5.58017 12.0561V4.22763H7.61179V17.9343H5.58017Z" stroke="#303030" stroke-width="0.6" mask="url(#path-1-inside-1_2767_1184)"/>
</svg>
