<svg width="176" height="44" viewBox="0 0 176 44" fill="none" xmlns="http://www.w3.org/2000/svg">
<path d="M22 44C34.1503 44 44 34.1503 44 22C44 9.84974 34.1503 0 22 0C9.84974 0 0 9.84974 0 22C0 34.1503 9.84974 44 22 44Z" fill="#FAFAFA"/>
<path d="M31.7283 17.8971C30.5772 12.606 22.1485 10.0625 18.7882 17.5073H18.7696V22.8726H16.1333L16.1705 18.1384C15.3722 21.4802 12.2532 23.6709 8.87427 23.0954V20.5148C11.9933 21.5916 15.5578 19.1781 15.892 16.9873H15.9105V10.768H18.5468C18.5339 10.9483 18.5389 12.7725 18.5432 14.3317C18.5451 15.0202 18.5468 15.6569 18.5468 16.0777C18.8253 15.1866 19.8464 12.4575 22.427 11.2693C25.8987 9.65409 31.7654 10.2296 33.9747 16.0777L31.7283 17.8971Z" fill="#4D4D4D"/>
<path d="M35.1072 18.9922V21.5728C32.0068 20.496 28.4422 22.9095 28.0895 25.1002L28.0895 31.6913H25.4532C25.466 31.511 25.4611 29.6868 25.4568 28.1276C25.4549 27.4391 25.4532 26.8024 25.4532 26.3816C25.1747 27.2727 24.1536 30.0018 21.573 31.19C18.1013 32.8052 12.2346 32.2297 10.0253 26.3816L12.2717 24.5622C13.4228 29.8533 21.8515 32.3968 25.2118 24.952L25.2118 19.2149H27.8481L27.811 23.9491C28.6093 20.6073 31.7283 18.4166 35.1072 18.9922Z" fill="#4D4D4D"/>
<path d="M88.0684 30.9083H85.6453L85.6453 7L88.0684 7L88.0684 30.9083Z" fill="#303030"/>
<path d="M98.8312 14.2371C100.684 14.2371 102.191 14.7325 103.354 15.7233C104.517 16.6925 105.099 18.0603 105.099 19.8265L105.099 30.9083H102.676V26.4497C101.577 29.6375 99.445 31.2314 96.2788 31.2314C94.7926 31.2314 93.5757 30.8221 92.628 30.0036C91.7018 29.1852 91.2387 28.0974 91.2387 26.7405C91.2387 25.2758 91.7664 24.145 92.8218 23.3481C93.8988 22.5511 95.288 22.0665 96.9896 21.8942L100.64 21.4742C101.997 21.345 102.676 20.7203 102.676 19.6003C102.676 18.588 102.321 17.791 101.61 17.2095C100.899 16.6279 99.962 16.3372 98.7989 16.3372C97.6358 16.3372 96.6342 16.6279 95.7942 17.2095C94.9542 17.791 94.3834 18.6849 94.0818 19.8911L91.7233 19.2449C92.111 17.6295 92.9403 16.391 94.2111 15.5294C95.5034 14.6679 97.0435 14.2371 98.8312 14.2371ZM96.8927 29.1959C98.5512 29.1959 99.9297 28.6467 101.028 27.5482C102.127 26.4282 102.676 25.1251 102.676 23.6389V22.2819C102.374 22.9281 101.642 23.3158 100.479 23.445L96.9573 23.8327C95.9665 23.962 95.1696 24.2635 94.5665 24.7374C93.9634 25.1897 93.6618 25.8143 93.6618 26.6112C93.6618 27.3867 93.9526 28.0113 94.5342 28.4851C95.1372 28.959 95.9234 29.1959 96.8927 29.1959Z" fill="#303030"/>
<path d="M117.584 14.2371C119.501 14.2371 121.074 14.9048 122.301 16.2402C123.551 17.5756 124.175 19.2557 124.175 21.2804V30.9083L121.752 30.9083V21.5711C121.752 20.128 121.278 18.9218 120.33 17.9526C119.383 16.9618 118.209 16.4664 116.809 16.4664C115.28 16.4664 114.02 16.951 113.029 17.9203C112.038 18.8895 111.543 20.1065 111.543 21.5711V30.9083H109.119L109.119 14.5602L111.543 14.5602V18.7603C111.995 17.3818 112.76 16.2833 113.836 15.4648C114.913 14.6463 116.163 14.2371 117.584 14.2371Z" fill="#303030"/>
<path d="M129.747 16.7572L126.064 16.7572L126.064 14.5602L129.747 14.5602V8.71236L132.17 7.96926V14.5602L137.146 14.5602V16.7572L132.17 16.7572L132.17 25.3512C132.17 26.5574 132.428 27.419 132.945 27.9359C133.462 28.4528 134.313 28.7113 135.498 28.7113H137.146L137.146 30.9083L135.498 30.9083C133.538 30.9083 132.084 30.4452 131.136 29.519C130.21 28.5928 129.747 27.1713 129.747 25.2543L129.747 16.7572Z" fill="#303030"/>
<path d="M140.284 9.71392C140.284 9.2616 140.435 8.88467 140.736 8.58312C141.038 8.28158 141.415 8.13081 141.867 8.13081C142.298 8.13081 142.664 8.28158 142.965 8.58312C143.288 8.88467 143.45 9.2616 143.45 9.71392C143.45 10.1447 143.288 10.5109 142.965 10.8124C142.664 11.114 142.298 11.2647 141.867 11.2647C141.415 11.2647 141.038 11.114 140.736 10.8124C140.435 10.5109 140.284 10.1447 140.284 9.71392ZM143.062 30.9083H140.639L140.639 14.5602L143.062 14.5602V30.9083Z" fill="#303030"/>
<path d="M154.988 14.2371C157.508 14.2371 159.576 15.131 161.191 16.9187C162.828 18.6849 163.55 20.8711 163.356 23.4773L148.979 23.4773C149.151 25.1143 149.808 26.4605 150.95 27.5159C152.113 28.5498 153.523 29.0667 155.182 29.0667C156.453 29.0667 157.584 28.7544 158.574 28.1298C159.565 27.5051 160.319 26.6543 160.836 25.5774L162.904 26.4497C162.214 27.8928 161.191 29.0559 159.834 29.939C158.477 30.8006 156.916 31.2314 155.15 31.2314C152.716 31.2314 150.67 30.4237 149.011 28.8082C147.374 27.1713 146.556 25.1466 146.556 22.7342C146.556 20.3219 147.363 18.308 148.979 16.6926C150.594 15.0556 152.597 14.2371 154.988 14.2371ZM154.988 16.4018C153.502 16.4018 152.21 16.8756 151.111 17.8234C150.013 18.7711 149.323 19.988 149.043 21.4742L160.901 21.4742C160.664 20.0096 159.996 18.8034 158.897 17.8557C157.821 16.8864 156.517 16.4018 154.988 16.4018Z" fill="#303030"/>
<path d="M169.344 14.5602V18.9542C169.904 17.0803 170.766 15.7772 171.929 15.0448C173.114 14.3125 174.471 14.0863 176 14.3663V16.7249C174.169 16.3156 172.597 16.5956 171.283 17.5649C169.991 18.5126 169.344 19.848 169.344 21.5711V30.9083H166.921V14.5602L169.344 14.5602Z" fill="#303030"/>
<path d="M74.0846 14.1485C76.3117 14.1485 78.1603 14.9701 79.6305 16.6134C81.1224 18.235 81.8684 20.2566 81.8684 22.6782C81.8684 25.1214 81.1224 27.1538 79.6305 28.7754C78.1603 30.3971 76.3117 31.2079 74.0846 31.2079C72.463 31.2079 71.0252 30.743 69.7712 29.8133C68.5387 28.8619 67.6523 27.6079 67.1117 26.0511V37.37H64.6793V14.4728H67.1117V19.3377C67.6523 17.7593 68.5387 16.5053 69.7712 15.5755C71.0252 14.6242 72.463 14.1485 74.0846 14.1485ZM73.4036 28.9376C75.09 28.9376 76.5062 28.343 77.6522 27.1538C78.7981 25.943 79.3711 24.4511 79.3711 22.6782C79.3711 20.9052 78.7981 19.4242 77.6522 18.235C76.5062 17.0242 75.09 16.4188 73.4036 16.4188C71.5874 16.4188 70.0847 17.0134 68.8955 18.2025C67.7063 19.3917 67.1117 20.8836 67.1117 22.6782C67.1117 24.4728 67.7063 25.9647 68.8955 27.1538C70.0847 28.343 71.5874 28.9376 73.4036 28.9376Z" fill="#303030"/>
<path d="M64.681 28.4723V24.0616C64.1189 25.9426 63.254 27.2507 62.0865 27.9859C60.8973 28.721 59.5351 28.948 58 28.6669V26.2994C59.8378 26.7102 61.4162 26.4291 62.7351 25.4562C64.0324 24.5048 64.681 23.1643 64.681 21.4346V12.0617H67.1134V28.4723H64.681Z" fill="#303030"/>
</svg>
