<svg width="198" height="52" viewBox="0 0 198 52" fill="none" xmlns="http://www.w3.org/2000/svg">
<rect width="198" height="52" rx="26" fill="#E5E5E5"/>
<path d="M26 48C38.1503 48 48 38.1503 48 26C48 13.8497 38.1503 4 26 4C13.8497 4 4 13.8497 4 26C4 38.1503 13.8497 48 26 48Z" fill="#FAFAFA"/>
<path d="M35.7283 21.8971C34.5772 16.606 26.1485 14.0625 22.7882 21.5073H22.7696V26.8726H20.1333L20.1705 22.1384C19.3722 25.4802 16.2532 27.6709 12.8743 27.0954V24.5148C15.9933 25.5916 19.5578 23.1781 19.892 20.9873H19.9105V14.768H22.5468C22.5339 14.9483 22.5389 16.7725 22.5432 18.3317C22.5451 19.0202 22.5468 19.6569 22.5468 20.0777C22.8253 19.1866 23.8464 16.4575 26.427 15.2693C29.8987 13.6541 35.7654 14.2296 37.9747 20.0777L35.7283 21.8971Z" fill="#4D4D4D"/>
<path d="M39.1072 22.9922V25.5728C36.0068 24.496 32.4422 26.9095 32.0895 29.1002L32.0895 35.6913H29.4532C29.466 35.511 29.4611 33.6868 29.4568 32.1276C29.4549 31.4391 29.4532 30.8024 29.4532 30.3816C29.1747 31.2727 28.1536 34.0018 25.573 35.19C22.1013 36.8052 16.2346 36.2297 14.0253 30.3816L16.2717 28.5622C17.4228 33.8533 25.8515 36.3968 29.2118 28.952L29.2118 23.2149H31.8481L31.811 27.9491C32.6093 24.6073 35.7283 22.4166 39.1072 22.9922Z" fill="#4D4D4D"/>
<path d="M92.0684 34.9083H89.6453L89.6453 11L92.0684 11L92.0684 34.9083Z" fill="#303030"/>
<path d="M102.831 18.2371C104.684 18.2371 106.191 18.7325 107.354 19.7233C108.517 20.6925 109.099 22.0603 109.099 23.8265L109.099 34.9083H106.676V30.4497C105.577 33.6375 103.445 35.2314 100.279 35.2314C98.7926 35.2314 97.5757 34.8221 96.628 34.0036C95.7018 33.1852 95.2387 32.0974 95.2387 30.7405C95.2387 29.2758 95.7664 28.145 96.8218 27.3481C97.8988 26.5511 99.288 26.0665 100.99 25.8942L104.64 25.4742C105.997 25.345 106.676 24.7203 106.676 23.6003C106.676 22.588 106.321 21.791 105.61 21.2095C104.899 20.6279 103.962 20.3372 102.799 20.3372C101.636 20.3372 100.634 20.6279 99.7942 21.2095C98.9542 21.791 98.3834 22.6849 98.0818 23.8911L95.7233 23.2449C96.111 21.6295 96.9403 20.391 98.2111 19.5294C99.5034 18.6679 101.043 18.2371 102.831 18.2371ZM100.893 33.1959C102.551 33.1959 103.93 32.6467 105.028 31.5482C106.127 30.4282 106.676 29.1251 106.676 27.6389V26.2819C106.374 26.9281 105.642 27.3158 104.479 27.445L100.957 27.8327C99.9665 27.962 99.1696 28.2635 98.5665 28.7374C97.9634 29.1897 97.6618 29.8143 97.6618 30.6112C97.6618 31.3867 97.9526 32.0113 98.5342 32.4851C99.1372 32.959 99.9234 33.1959 100.893 33.1959Z" fill="#303030"/>
<path d="M121.584 18.2371C123.501 18.2371 125.074 18.9048 126.301 20.2402C127.551 21.5756 128.175 23.2557 128.175 25.2804V34.9083L125.752 34.9083V25.5711C125.752 24.128 125.278 22.9218 124.33 21.9526C123.383 20.9618 122.209 20.4664 120.809 20.4664C119.28 20.4664 118.02 20.951 117.029 21.9203C116.038 22.8895 115.543 24.1065 115.543 25.5711V34.9083H113.119L113.119 18.5602L115.543 18.5602V22.7603C115.995 21.3818 116.76 20.2833 117.836 19.4648C118.913 18.6463 120.163 18.2371 121.584 18.2371Z" fill="#303030"/>
<path d="M133.747 20.7572L130.064 20.7572L130.064 18.5602L133.747 18.5602V12.7124L136.17 11.9693V18.5602L141.146 18.5602V20.7572L136.17 20.7572L136.17 29.3512C136.17 30.5574 136.428 31.419 136.945 31.9359C137.462 32.4528 138.313 32.7113 139.498 32.7113H141.146L141.146 34.9083L139.498 34.9083C137.538 34.9083 136.084 34.4452 135.136 33.519C134.21 32.5928 133.747 31.1713 133.747 29.2543L133.747 20.7572Z" fill="#303030"/>
<path d="M144.284 13.7139C144.284 13.2616 144.435 12.8847 144.736 12.5831C145.038 12.2816 145.415 12.1308 145.867 12.1308C146.298 12.1308 146.664 12.2816 146.965 12.5831C147.288 12.8847 147.45 13.2616 147.45 13.7139C147.45 14.1447 147.288 14.5109 146.965 14.8124C146.664 15.114 146.298 15.2647 145.867 15.2647C145.415 15.2647 145.038 15.114 144.736 14.8124C144.435 14.5109 144.284 14.1447 144.284 13.7139ZM147.062 34.9083H144.639L144.639 18.5602L147.062 18.5602V34.9083Z" fill="#303030"/>
<path d="M158.988 18.2371C161.508 18.2371 163.576 19.131 165.191 20.9187C166.828 22.6849 167.55 24.8711 167.356 27.4773L152.979 27.4773C153.151 29.1143 153.808 30.4605 154.95 31.5159C156.113 32.5498 157.523 33.0667 159.182 33.0667C160.453 33.0667 161.584 32.7544 162.574 32.1298C163.565 31.5051 164.319 30.6543 164.836 29.5774L166.904 30.4497C166.214 31.8928 165.191 33.0559 163.834 33.939C162.477 34.8006 160.916 35.2314 159.15 35.2314C156.716 35.2314 154.67 34.4237 153.011 32.8082C151.374 31.1713 150.556 29.1466 150.556 26.7342C150.556 24.3219 151.363 22.308 152.979 20.6926C154.594 19.0556 156.597 18.2371 158.988 18.2371ZM158.988 20.4018C157.502 20.4018 156.21 20.8756 155.111 21.8234C154.013 22.7711 153.323 23.988 153.043 25.4742L164.901 25.4742C164.664 24.0096 163.996 22.8034 162.897 21.8557C161.821 20.8864 160.517 20.4018 158.988 20.4018Z" fill="#303030"/>
<path d="M173.344 18.5602V22.9542C173.904 21.0803 174.766 19.7772 175.929 19.0448C177.114 18.3125 178.471 18.0863 180 18.3663V20.7249C178.169 20.3156 176.597 20.5956 175.283 21.5649C173.991 22.5126 173.344 23.848 173.344 25.5711V34.9083H170.921V18.5602L173.344 18.5602Z" fill="#303030"/>
<path d="M78.0846 18.1485C80.3117 18.1485 82.1603 18.9701 83.6305 20.6134C85.1224 22.235 85.8684 24.2566 85.8684 26.6782C85.8684 29.1214 85.1224 31.1538 83.6305 32.7754C82.1603 34.3971 80.3117 35.2079 78.0846 35.2079C76.463 35.2079 75.0252 34.743 73.7712 33.8133C72.5387 32.8619 71.6523 31.6079 71.1117 30.0511V41.37H68.6793V18.4728H71.1117V23.3377C71.6523 21.7593 72.5387 20.5053 73.7712 19.5755C75.0252 18.6242 76.463 18.1485 78.0846 18.1485ZM77.4036 32.9376C79.09 32.9376 80.5062 32.343 81.6522 31.1538C82.7981 29.943 83.3711 28.4511 83.3711 26.6782C83.3711 24.9052 82.7981 23.4242 81.6522 22.235C80.5062 21.0242 79.09 20.4188 77.4036 20.4188C75.5874 20.4188 74.0847 21.0134 72.8955 22.2025C71.7063 23.3917 71.1117 24.8836 71.1117 26.6782C71.1117 28.4728 71.7063 29.9647 72.8955 31.1538C74.0847 32.343 75.5874 32.9376 77.4036 32.9376Z" fill="#303030"/>
<path d="M68.681 32.4723V28.0616C68.1189 29.9426 67.254 31.2507 66.0865 31.9859C64.8973 32.721 63.5351 32.948 62 32.6669V30.2994C63.8378 30.7102 65.4162 30.4291 66.7351 29.4562C68.0324 28.5048 68.681 27.1643 68.681 25.4346V16.0617H71.1134V32.4723H68.681Z" fill="#303030"/>
</svg>
