<svg width="185" height="196" viewBox="0 0 185 196" fill="none" xmlns="http://www.w3.org/2000/svg">
<path d="M124.204 16.1146C141.401 16.1146 155.676 22.459 167.029 35.1479C178.549 47.6698 184.309 63.2805 184.309 81.9799C184.309 100.846 178.549 116.54 167.029 129.062C155.676 141.584 141.401 147.845 124.204 147.845C111.682 147.845 100.58 144.256 90.8959 137.076C81.3792 129.73 74.5339 120.047 70.3599 108.026V195.429H51.5771V18.6189H70.3599V56.1847C74.5339 43.9967 81.3792 34.3131 90.8959 27.1339C100.58 19.7877 111.682 16.1146 124.204 16.1146ZM118.945 130.315C131.968 130.315 142.904 125.723 151.752 116.54C160.601 107.191 165.026 95.6706 165.026 81.9799C165.026 68.2893 160.601 56.8526 151.752 47.6698C142.904 38.3201 131.968 33.6453 118.945 33.6453C104.92 33.6453 93.3168 38.2366 84.1341 47.4194C74.9513 56.6021 70.3599 68.1223 70.3599 81.9799C70.3599 95.8375 74.9513 107.358 84.1341 116.54C93.3168 125.723 104.92 130.315 118.945 130.315Z" fill="#303030"/>
<path d="M51.5903 126.722V92.6623C47.2494 107.188 40.571 117.289 31.5553 122.965C22.3725 128.642 11.8541 130.395 0 128.225V109.943C14.1915 113.115 26.3795 110.944 36.564 103.431C46.5816 96.0849 51.5903 85.7335 51.5903 72.3767V0H70.3732V126.722H51.5903Z" fill="#303030"/>
</svg>
