<svg width="22" height="25" viewBox="0 0 22 25" fill="none" xmlns="http://www.w3.org/2000/svg">
<path d="M19.0097 5.67419L18.359 16.201C18.1927 18.8905 18.1096 20.2353 17.4355 21.2022C17.1021 21.6802 16.6731 22.0836 16.1753 22.3867C15.1688 23 13.8215 23 11.1267 23C8.42854 23 7.07942 23 6.07216 22.3856C5.57418 22.0819 5.14492 21.6778 4.81172 21.1989C4.1378 20.2306 4.05649 18.8839 3.8939 16.1906L3.25903 5.67419" stroke="#303030" stroke-width="2.05971" stroke-linecap="round"/>
<path d="M20.583 5.67419H1.68213" stroke="#303030" stroke-width="2.05971" stroke-linecap="round"/>
<path d="M15.3955 5.67517L14.6786 4.19642C14.2025 3.21413 13.9644 2.72298 13.5537 2.41667C13.4626 2.34872 13.3662 2.28828 13.2653 2.23595C12.8105 2 12.2647 2 11.1731 2C10.054 2 9.49446 2 9.03218 2.24584C8.9297 2.30032 8.83193 2.36321 8.73985 2.43385C8.32439 2.75257 8.09232 3.26168 7.62818 4.27993L6.99219 5.67517" stroke="#303030" stroke-width="2.05971" stroke-linecap="round"/>
<path d="M8.51025 17.2257V10.9254" stroke="#303030" stroke-width="2.05971" stroke-linecap="round"/>
<path d="M13.7561 17.2257V10.9254" stroke="#303030" stroke-width="2.05971" stroke-linecap="round"/>
</svg>
