<svg width="23" height="23" viewBox="0 0 23 23" fill="none" xmlns="http://www.w3.org/2000/svg">
<path d="M13.602 3.76912C14.3472 2.96175 14.7198 2.55807 15.1157 2.3226C16.071 1.75443 17.2474 1.73676 18.2187 2.27599C18.6212 2.49947 19.0052 2.89179 19.7733 3.67643C20.5414 4.46107 20.9255 4.85339 21.1442 5.2646C21.6721 6.25679 21.6548 7.45846 21.0986 8.43437C20.8681 8.83883 20.4729 9.21945 19.6826 9.98067L10.2789 19.038C8.78121 20.4806 8.03233 21.2019 7.09639 21.5674C6.16045 21.933 5.13153 21.9061 3.07368 21.8523L2.7937 21.845C2.16723 21.8286 1.85399 21.8204 1.67191 21.6137C1.48982 21.4071 1.51468 21.088 1.5644 20.4499L1.5914 20.1034C1.73133 18.3072 1.80129 17.4092 2.15203 16.6019C2.50276 15.7946 3.10776 15.1392 4.31775 13.8282L13.602 3.76912Z" stroke="#303030" stroke-width="2" stroke-linejoin="round"/>
<path d="M12.5317 3.88098L19.5317 10.881" stroke="#303030" stroke-width="2" stroke-linejoin="round"/>
<path d="M13.5278 21.8821H21.5278" stroke="#303030" stroke-width="2" stroke-linecap="round" stroke-linejoin="round"/>
</svg>
