<svg width="28" height="27" viewBox="0 0 28 27" fill="none" xmlns="http://www.w3.org/2000/svg">
<path d="M13.9825 17.8551L17.8722 22.5641C19.3132 24.3086 20.0338 25.181 20.788 24.9686C21.5422 24.7562 21.801 23.6083 22.3182 21.3121L25.1875 8.57533C25.9842 5.03897 26.3824 3.2708 25.497 2.39867C24.6116 1.52654 23.0768 2.17537 20.0073 3.47305L5.76651 9.49353C3.31152 10.5314 2.08401 11.0504 2.00609 11.9422C1.99811 12.0334 1.99797 12.1253 2.00569 12.2165C2.08105 13.1086 3.30705 13.632 5.75906 14.6785C6.87006 15.1527 7.42556 15.3899 7.82384 15.844C7.86863 15.895 7.91168 15.9479 7.95294 16.0024C8.3199 16.488 8.47651 17.1252 8.7897 18.3995L9.37584 20.7846C9.6806 22.0247 9.83299 22.6448 10.2321 22.7294C10.6312 22.8139 10.9787 22.2997 11.6737 21.2714L13.9825 17.8551ZM13.9825 17.8551L13.6011 17.4319C13.1671 16.9502 12.9501 16.7094 12.9501 16.4102C12.9501 16.1109 13.1671 15.8701 13.6011 15.3883L17.8887 10.6302" stroke="#303030" stroke-width="3" stroke-linecap="round" stroke-linejoin="round"/>
</svg>
