<svg width="40" height="40" viewBox="0 0 40 40" fill="none" xmlns="http://www.w3.org/2000/svg">
<path d="M20 38C29.9411 38 38 29.9411 38 20C38 10.0589 29.9411 2 20 2C10.0589 2 2 10.0589 2 20C2 29.9411 10.0589 38 20 38Z" stroke="#303030" stroke-width="2.38771"/>
<path d="M11.9001 29C16.0972 24.604 23.8579 24.397 28.1001 29M24.4913 15.5C24.4913 17.9852 22.4737 20 19.9848 20C17.4962 20 15.4785 17.9852 15.4785 15.5C15.4785 13.0147 17.4962 11 19.9848 11C22.4737 11 24.4913 13.0147 24.4913 15.5Z" stroke="#303030" stroke-width="2.38771" stroke-linecap="square"/>
</svg>
